<?xml version="1.0" encoding="utf-8"?>
<!-- Generator: Adobe Illustrator 18.1.1, SVG Export Plug-In . SVG Version: 6.00 Build 0)  -->
<svg version="1.1" id="Layer_1" xmlns="http://www.w3.org/2000/svg" xmlns:xlink="http://www.w3.org/1999/xlink" x="0px" y="0px"
	 viewBox="0 0 30 30" enable-background="new 0 0 30 30" xml:space="preserve">
<path fill="#AD3B8F" d="M15,9.4C15,4.7,4.6,3.7,0,3.7v20.6h0.9c0.3,0,0.6,0,0.9,0v1.9c3.8,0,11.2-1.1,11.2,1.9h3.8
	c0-3,7.5-1.9,11.2-1.9v-1.9c0.3,0,0.6,0,0.9,0H30V3.7C25.4,3.7,15,4.7,15,9.4z M13.1,23.3c-2.7-1.6-7.9-1.8-11.2-1.8V5.6
	c0.9,0,1.8,0,2.6,0.1l0.5,0l0.2,0c3.7,0.3,7.6,1,8,3.2l0.1,0.4V23.3z M28.1,21.6c-3.4,0-8.5,0.2-11.2,1.8v-14c0-1.2,2-3.7,11.2-3.8
	V21.6z"/>
</svg>
