<?xml version="1.0" encoding="utf-8"?>
<!-- Generator: Adobe Illustrator 19.1.0, SVG Export Plug-In . SVG Version: 6.00 Build 0)  -->
<svg version="1.1" id="Layer_1" xmlns="http://www.w3.org/2000/svg" xmlns:xlink="http://www.w3.org/1999/xlink" x="0px" y="0px"
	 width="30px" height="30px" viewBox="-290 382 30 30" enable-background="new -290 382 30 30" xml:space="preserve">
<path fill="#AD3B8F" d="M-275,391.4c0-4.7-10.4-5.7-15-5.7v20.6h0.9c0.3,0,0.6,0,0.9,0v1.9c3.8,0,11.2-1.1,11.2,1.9h3.8
	c0-3,7.5-1.9,11.2-1.9v-1.9c0.3,0,0.6,0,0.9,0h1.1v-20.6C-264.6,385.7-275,386.7-275,391.4z M-276.9,405.3
	c-2.7-1.6-7.9-1.8-11.2-1.8v-15.9c0.9,0,1.8,0,2.6,0.1h0.5h0.2c3.7,0.3,7.6,1,8,3.2l0.1,0.4v14H-276.9z M-261.9,403.6
	c-3.4,0-8.5,0.2-11.2,1.8v-14c0-1.2,2-3.7,11.2-3.8C-261.9,387.6-261.9,403.6-261.9,403.6z"/>
</svg>
