<?xml version="1.0" encoding="utf-8"?>
<!-- Generator: Adobe Illustrator 19.1.0, SVG Export Plug-In . SVG Version: 6.00 Build 0)  -->
<svg version="1.1" id="Layer_1" xmlns="http://www.w3.org/2000/svg" xmlns:xlink="http://www.w3.org/1999/xlink" x="0px" y="0px"
	 width="30px" height="30px" viewBox="-290 382 30 30" enable-background="new -290 382 30 30" xml:space="preserve">
<path fill="#AD3B8F" d="M-263.8,402.6v-7.5h-10.3v-5.6h5.6V382h-12.7v7.5h5.2v5.6h-10.2v7.5h-3.8v7.5h7.5v-7.5h-1.9V397h8.4v5.6
	h-2.7v7.5h7.5v-7.5h-2.9V397h8.5v5.6h-1.9v7.5h7.5v-7.5H-263.8z M-279.3,387.6v-3.7h8.9v3.8h-8.9V387.6z M-284.4,408.2h-3.7v-3.8
	h3.8v3.8H-284.4z M-273.1,404.5v3.8h-3.8v-3.8H-273.1z M-261.9,408.2h-3.8v-3.8h3.8V408.2z"/>
</svg>
