<?xml version="1.0" encoding="utf-8"?>
<!-- Generator: Adobe Illustrator 18.1.1, SVG Export Plug-In . SVG Version: 6.00 Build 0)  -->
<svg version="1.1" id="Layer_1" xmlns="http://www.w3.org/2000/svg" xmlns:xlink="http://www.w3.org/1999/xlink" x="0px" y="0px"
	 viewBox="0 0 30 30" enable-background="new 0 0 30 30" xml:space="preserve">
<path fill="#AD3B8F" d="M26.2,20.6v-7.5H15.9V7.5h5.6V0H8.8v7.5H14v5.6H3.8v7.5H0v7.5h7.5v-7.5H5.6V15H14v5.6h-2.7v7.5h7.5v-7.5
	h-2.9V15h8.5v5.6h-1.9v7.5H30v-7.5H26.2z M10.7,5.6V1.9h8.9v3.8H10.7z M5.6,26.2H1.9v-3.8h3.8V26.2z M16.9,22.5v3.8h-3.8v-3.8H16.9z
	 M28.1,26.2h-3.8v-3.8h3.8V26.2z"/>
</svg>
