<?xml version="1.0" encoding="utf-8"?>
<!-- Generator: Adobe Illustrator 19.1.0, SVG Export Plug-In . SVG Version: 6.00 Build 0)  -->
<svg version="1.1" id="Layer_1" xmlns="http://www.w3.org/2000/svg" xmlns:xlink="http://www.w3.org/1999/xlink" x="0px" y="0px"
	 width="124px" height="116px" viewBox="-243 339 124 116" enable-background="new -243 339 124 116" xml:space="preserve">
<g>
	<path fill="#CEC5D6" d="M-235.8,387v3.2h0.1c0.3-0.5,0.6-1,1-1.4c0.4-0.5,0.9-0.9,1.5-1.2c0.6-0.4,1.2-0.6,2-0.9
		c0.7-0.2,1.5-0.3,2.4-0.3c1.7,0,3.1,0.3,4.3,1c1.2,0.7,2.1,1.7,2.7,2.9c0.8-1.2,1.8-2.2,3-2.9c1.2-0.7,2.7-1.1,4.4-1.1
		c1.6,0,2.9,0.3,4,0.9c1.1,0.6,1.9,1.3,2.6,2.2s1.1,1.9,1.4,3.1c0,0.1,0,0.2,0.1,0.3v-19.2H-243V387H-235.8z"/>
	<path fill="#CEC5D6" d="M-213.6,410.2v-12.6c0-0.7,0-1.3-0.1-1.9c-0.1-0.6-0.3-1.1-0.5-1.6c-0.2-0.4-0.6-0.8-1-1
		c-0.4-0.3-1-0.4-1.7-0.4c-0.7,0-1.2,0.1-1.7,0.4c-0.5,0.3-0.9,0.7-1.2,1.1c-0.3,0.5-0.6,1-0.7,1.6c-0.2,0.6-0.2,1.2-0.2,1.9v12.5
		h-7.6V397c0-1.3-0.3-2.4-0.8-3.2c-0.5-0.8-1.4-1.2-2.5-1.2c-1.2,0-2.1,0.5-2.8,1.4c-0.7,1-1,2.1-1,3.5v12.6h-7.6v10.5h36.6v-10.4
		H-213.6z"/>
</g>
<g>
	<path fill="#CEC5D6" d="M-133,394.5c-0.5-0.5-1-1-1.7-1.3c-0.7-0.3-1.5-0.5-2.4-0.5c-0.9,0-1.6,0.2-2.3,0.5
		c-0.7,0.3-1.3,0.8-1.7,1.4c-0.5,0.6-0.9,1.2-1.1,1.9c-0.3,0.7-0.4,1.4-0.4,2.2c0,0.7,0.1,1.5,0.4,2.2c0.3,0.7,0.6,1.4,1.1,1.9
		c0.5,0.6,1.1,1,1.7,1.3c0.7,0.3,1.5,0.5,2.3,0.5c0.9,0,1.7-0.2,2.4-0.5s1.2-0.8,1.7-1.3c0.4-0.6,0.8-1.2,1-1.9
		c0.2-0.7,0.3-1.5,0.3-2.2c0-0.7-0.1-1.5-0.3-2.2C-132.2,395.6-132.5,395-133,394.5z"/>
	<path fill="#CEC5D6" d="M-155.6,339v115.8h36.6V339H-155.6z M-124.9,403.2c-0.5,1.5-1.2,2.8-2.2,3.9c-0.9,1.1-2.1,2-3.5,2.7
		c-1.4,0.7-2.9,1-4.7,1c-1.4,0-2.8-0.3-4.1-0.9c-1.3-0.6-2.3-1.4-3-2.4h-0.1v13.7h-7.5V387h7.3v2.8h0.1c0.7-0.9,1.7-1.7,3-2.4
		c1.3-0.7,2.7-1,4.4-1s3.2,0.3,4.6,1c1.4,0.7,2.5,1.5,3.5,2.7c0.9,1.1,1.7,2.4,2.2,3.9s0.8,3,0.8,4.6
		C-124.2,400.2-124.4,401.7-124.9,403.2z"/>
</g>
<g>
	<path fill="#CEC5D6" d="M-199.3,356.2v48.4h36.6v-48.4H-199.3z M-170.6,392.1h-7v-2.5h-0.1c-0.6,1-1.5,1.7-2.7,2.2
		c-1.2,0.5-2.5,0.8-3.9,0.8c-0.9,0-1.9-0.1-2.9-0.4c-1-0.2-1.9-0.7-2.7-1.2c-0.8-0.6-1.5-1.3-2-2.2c-0.5-0.9-0.8-2.1-0.8-3.4
		c0-1.7,0.5-3,1.4-4c0.9-1,2.1-1.8,3.5-2.4c1.4-0.6,3-0.9,4.8-1.1c1.8-0.2,3.5-0.3,5.2-0.3v-0.4c0-1.1-0.4-2-1.2-2.5
		c-0.8-0.5-1.8-0.8-3-0.8c-1.1,0-2.1,0.2-3.1,0.7s-1.9,1-2.6,1.7l-3.9-4.1c1.4-1.3,3-2.3,4.8-2.9c1.8-0.7,3.7-1,5.6-1
		c2,0,3.6,0.2,5,0.7c1.3,0.5,2.4,1.2,3.3,2.2c0.8,1,1.5,2.3,1.8,3.8c0.4,1.5,0.6,3.4,0.6,5.5v11.6H-170.6z"/>
	<path fill="#CEC5D6" d="M-181.1,382.1c-0.9,0.1-1.6,0.2-2.3,0.4c-0.7,0.2-1.2,0.5-1.7,1c-0.4,0.4-0.7,1-0.7,1.7
		c0,0.4,0.1,0.8,0.3,1.1c0.2,0.3,0.5,0.6,0.8,0.7c0.3,0.2,0.7,0.3,1.1,0.4c0.4,0.1,0.8,0.1,1.2,0.1c1.6,0,2.7-0.4,3.6-1.3
		c0.8-0.9,1.2-2,1.2-3.5V382h-1C-179.4,382-180.3,382-181.1,382.1z"/>
</g>
<g>
	<path fill="#FFFFFF" d="M-242.7,425.6h2l1.9,5.1l0,0l1.9-5.1h2v7.2h-1.3V427l0,0l-2.2,5.8h-0.9l-2.1-5.8l0,0v5.8h-1.3V425.6z"/>
	<path fill="#FFFFFF" d="M-230.4,425.6h1.1l3.1,7.2h-1.5l-0.7-1.7h-3.1l-0.7,1.7h-1.4L-230.4,425.6z M-228.8,430.1l-1.1-2.9
		l-1.1,2.9H-228.8z"/>
	<path fill="#FFFFFF" d="M-224.9,425.6h1.7l3.4,5.4l0,0v-5.4h1.3v7.2h-1.6l-3.4-5.6l0,0v5.6h-1.3L-224.9,425.6L-224.9,425.6z"/>
	<path fill="#FFFFFF" d="M-214.1,425.6h1.1l3.1,7.2h-1.5l-0.6-1.6h-3.1l-0.7,1.7h-1.4L-214.1,425.6z M-212.4,430.1l-1.1-2.9
		l-1.1,2.9H-212.4z"/>
	<path fill="#FFFFFF" d="M-202.4,432.5c-0.4,0.2-0.8,0.3-1.2,0.4c-0.4,0.1-0.9,0.1-1.5,0.1c-0.6,0-1.1-0.1-1.6-0.3
		c-0.5-0.2-0.9-0.4-1.2-0.8c-0.3-0.3-0.6-0.7-0.8-1.2s-0.3-1-0.3-1.5c0-0.6,0.1-1.1,0.3-1.6s0.5-0.9,0.8-1.2
		c0.3-0.3,0.8-0.6,1.2-0.8c0.5-0.2,1-0.3,1.6-0.3c0.6,0,1.1,0.1,1.6,0.2c0.5,0.2,0.9,0.4,1.2,0.7l-0.9,1c-0.2-0.2-0.4-0.4-0.8-0.5
		c-0.3-0.1-0.7-0.2-1.1-0.2c-0.4,0-0.7,0.1-1,0.2c-0.3,0.1-0.6,0.3-0.8,0.6c-0.2,0.2-0.4,0.5-0.5,0.8c-0.1,0.3-0.2,0.7-0.2,1
		c0,0.4,0.1,0.7,0.2,1.1c0.1,0.3,0.3,0.6,0.5,0.8c0.2,0.2,0.5,0.4,0.8,0.6c0.3,0.1,0.7,0.2,1.1,0.2c0.6,0,1-0.1,1.4-0.3v-1.8h-1.5
		v-1.1h2.8L-202.4,432.5L-202.4,432.5z"/>
	<path fill="#FFFFFF" d="M-200.2,425.6h4.8v1.1h-3.5v1.8h3.3v1.1h-3.3v2h3.7v1.1h-5V425.6z"/>
	<path fill="#FFFFFF" d="M-193.4,425.6h2l1.9,5.1l0,0l1.9-5.1h2v7.2h-1.3V427l0,0l-2.2,5.8h-0.9l-2.1-5.8l0,0v5.8h-1.2L-193.4,425.6
		L-193.4,425.6z"/>
	<path fill="#FFFFFF" d="M-183.4,425.6h4.8v1.1h-3.5v1.8h3.3v1.1h-3.3v2h3.7v1.1h-5C-183.4,432.7-183.4,425.6-183.4,425.6z"/>
	<path fill="#FFFFFF" d="M-176.5,425.6h1.7l3.4,5.4l0,0v-5.4h1.3v7.2h-1.6l-3.4-5.6l0,0v5.6h-1.3v-7.2H-176.5z"/>
	<path fill="#FFFFFF" d="M-166.5,426.7h-2.2v-1.1h5.7v1.1h-2.2v6.1h-1.3V426.7z"/>
	<path fill="#FFFFFF" d="M-237.7,442.1l1.7,1.7h-1.6l-0.8-0.8c-0.2,0.3-0.5,0.5-0.9,0.7c-0.3,0.2-0.8,0.3-1.3,0.3
		c-0.3,0-0.6,0-0.9-0.1s-0.5-0.2-0.8-0.4c-0.2-0.2-0.4-0.4-0.5-0.7c-0.1-0.3-0.2-0.6-0.2-0.9c0-0.3,0-0.5,0.1-0.7
		c0.1-0.2,0.2-0.4,0.4-0.6c0.1-0.2,0.3-0.3,0.5-0.4c0.2-0.1,0.4-0.2,0.6-0.3c-0.2-0.2-0.4-0.5-0.6-0.8c-0.1-0.3-0.2-0.5-0.2-0.9
		c0-0.3,0.1-0.6,0.2-0.8c0.1-0.2,0.3-0.4,0.5-0.6c0.2-0.1,0.4-0.3,0.7-0.3c0.2-0.1,0.5-0.1,0.7-0.1c0.3,0,0.5,0,0.7,0.1
		c0.2,0.1,0.5,0.2,0.6,0.3c0.2,0.1,0.3,0.3,0.4,0.6c0.1,0.2,0.2,0.5,0.2,0.8c0,0.2,0,0.4-0.1,0.6c-0.1,0.2-0.2,0.4-0.3,0.5
		c-0.1,0.2-0.3,0.3-0.5,0.4c-0.2,0.1-0.4,0.2-0.6,0.3l1.2,1.2l0.8-1.3h1.4L-237.7,442.1z M-240.7,440.6c-0.1,0-0.3,0.1-0.4,0.2
		c-0.1,0.1-0.2,0.1-0.3,0.2c-0.1,0.1-0.2,0.2-0.2,0.3c-0.1,0.1-0.1,0.3-0.1,0.5c0,0.2,0,0.3,0.1,0.5c0.1,0.1,0.2,0.3,0.3,0.4
		c0.1,0.1,0.2,0.2,0.4,0.2c0.2,0,0.3,0.1,0.4,0.1c0.3,0,0.6-0.1,0.8-0.2c0.2-0.1,0.4-0.3,0.6-0.6L-240.7,440.6z M-240.1,437.4
		c-0.2,0-0.4,0.1-0.6,0.2c-0.2,0.2-0.3,0.4-0.3,0.6c0,0.2,0.1,0.4,0.2,0.6c0.1,0.2,0.3,0.4,0.5,0.6c0.1-0.1,0.3-0.1,0.4-0.2
		c0.1-0.1,0.2-0.2,0.3-0.3c0.1-0.1,0.2-0.2,0.2-0.3c0.1-0.1,0.1-0.2,0.1-0.4c0-0.2-0.1-0.4-0.2-0.6
		C-239.7,437.5-239.9,437.4-240.1,437.4z"/>
	<path fill="#FFFFFF" d="M-230.2,436.6h1.1l3.1,7.2h-1.5l-0.7-1.7h-3.1l-0.7,1.7h-1.4L-230.2,436.6z M-228.6,441.1l-1.1-2.9
		l-1.1,2.9H-228.6z"/>
	<path fill="#FFFFFF" d="M-220.1,438.3c-0.2-0.3-0.4-0.4-0.7-0.6c-0.3-0.1-0.6-0.2-0.9-0.2c-0.4,0-0.7,0.1-1,0.2
		c-0.3,0.1-0.6,0.3-0.8,0.6c-0.2,0.2-0.4,0.5-0.5,0.8s-0.2,0.7-0.2,1c0,0.4,0.1,0.8,0.2,1.1s0.3,0.6,0.5,0.8s0.5,0.4,0.8,0.5
		c0.3,0.1,0.6,0.2,1,0.2c0.4,0,0.7-0.1,1-0.2c0.3-0.2,0.5-0.4,0.7-0.6l1,0.7c-0.3,0.4-0.7,0.7-1.2,0.9s-1,0.3-1.6,0.3
		c-0.6,0-1.1-0.1-1.6-0.3c-0.5-0.2-0.9-0.4-1.2-0.8c-0.3-0.3-0.6-0.7-0.8-1.2c-0.2-0.5-0.3-1-0.3-1.5c0-0.6,0.1-1.1,0.3-1.6
		c0.2-0.5,0.5-0.9,0.8-1.2c0.4-0.3,0.8-0.6,1.2-0.8c0.5-0.2,1-0.3,1.6-0.3c0.2,0,0.5,0,0.7,0.1c0.3,0,0.5,0.1,0.7,0.2
		c0.2,0.1,0.4,0.2,0.7,0.3c0.2,0.1,0.4,0.3,0.5,0.5L-220.1,438.3z"/>
	<path fill="#FFFFFF" d="M-213,438.3c-0.2-0.3-0.4-0.4-0.7-0.6c-0.3-0.1-0.6-0.2-0.9-0.2c-0.4,0-0.7,0.1-1,0.2
		c-0.3,0.1-0.6,0.3-0.8,0.6c-0.2,0.2-0.4,0.5-0.5,0.8c-0.1,0.3-0.2,0.7-0.2,1c0,0.4,0.1,0.8,0.2,1.1c0.1,0.3,0.3,0.6,0.5,0.8
		c0.2,0.2,0.5,0.4,0.8,0.5c0.3,0.1,0.6,0.2,1,0.2c0.4,0,0.7-0.1,1-0.2c0.3-0.2,0.5-0.4,0.7-0.6l1,0.7c-0.3,0.4-0.7,0.7-1.2,0.9
		s-1,0.3-1.6,0.3c-0.6,0-1.1-0.1-1.6-0.3c-0.5-0.2-0.9-0.4-1.2-0.8c-0.3-0.3-0.6-0.7-0.8-1.2s-0.3-1-0.3-1.5c0-0.6,0.1-1.1,0.3-1.6
		s0.5-0.9,0.8-1.2c0.4-0.3,0.8-0.6,1.2-0.8c0.5-0.2,1-0.3,1.6-0.3c0.2,0,0.5,0,0.7,0.1c0.3,0,0.5,0.1,0.7,0.2s0.4,0.2,0.7,0.3
		c0.2,0.1,0.4,0.3,0.5,0.5L-213,438.3z"/>
	<path fill="#FFFFFF" d="M-211.4,440.2c0-0.6,0.1-1.1,0.3-1.6c0.2-0.5,0.5-0.9,0.8-1.2c0.3-0.3,0.8-0.6,1.2-0.8
		c0.5-0.2,1-0.3,1.5-0.3c0.6,0,1.1,0.1,1.6,0.3c0.5,0.2,0.9,0.4,1.2,0.8c0.3,0.3,0.6,0.7,0.8,1.2s0.3,1,0.3,1.6
		c0,0.6-0.1,1.1-0.3,1.5c-0.2,0.5-0.5,0.9-0.8,1.2c-0.3,0.3-0.8,0.6-1.2,0.8c-0.5,0.2-1,0.3-1.6,0.3c-0.6,0-1.1-0.1-1.5-0.3
		c-0.5-0.2-0.9-0.4-1.2-0.8c-0.3-0.3-0.6-0.7-0.8-1.2C-211.3,441.3-211.4,440.8-211.4,440.2z M-210,440.2c0,0.4,0.1,0.7,0.2,1.1
		c0.1,0.3,0.3,0.6,0.5,0.8c0.2,0.2,0.5,0.4,0.8,0.6c0.3,0.1,0.6,0.2,1,0.2s0.7-0.1,1-0.2c0.3-0.1,0.6-0.3,0.8-0.6
		c0.2-0.2,0.4-0.5,0.5-0.8c0.1-0.3,0.2-0.7,0.2-1.1c0-0.4-0.1-0.7-0.2-1c-0.1-0.3-0.3-0.6-0.5-0.8c-0.2-0.2-0.5-0.4-0.8-0.6
		c-0.3-0.1-0.6-0.2-1-0.2s-0.7,0.1-1,0.2c-0.3,0.1-0.6,0.3-0.8,0.6c-0.2,0.2-0.4,0.5-0.5,0.8C-210,439.5-210,439.8-210,440.2z"/>
	<path fill="#FFFFFF" d="M-196.5,441.2c0,0.4-0.1,0.8-0.2,1.2c-0.2,0.3-0.4,0.6-0.6,0.9c-0.2,0.3-0.6,0.4-0.9,0.6
		c-0.4,0.1-0.7,0.2-1.2,0.2s-0.8-0.1-1.2-0.2c-0.4-0.1-0.7-0.3-0.9-0.6c-0.3-0.2-0.5-0.5-0.6-0.9c-0.1-0.4-0.2-0.7-0.2-1.2v-4.6h1.3
		v4.5c0,0.2,0,0.4,0.1,0.6c0.1,0.2,0.1,0.4,0.3,0.6c0.1,0.2,0.3,0.3,0.5,0.4c0.2,0.1,0.5,0.2,0.8,0.2s0.6-0.1,0.8-0.2
		c0.2-0.1,0.4-0.2,0.5-0.4c0.1-0.2,0.2-0.3,0.3-0.6c0.1-0.2,0.1-0.4,0.1-0.6v-4.5h1.3v4.6H-196.5z"/>
	<path fill="#FFFFFF" d="M-194.9,436.6h1.7l3.4,5.4l0,0v-5.4h1.3v7.2h-1.6l-3.4-5.6l0,0v5.6h-1.3L-194.9,436.6L-194.9,436.6z"/>
	<path fill="#FFFFFF" d="M-185.3,437.7h-2.2v-1.1h5.7v1.1h-2.2v6.1h-1.3V437.7z"/>
	<path fill="#FFFFFF" d="M-180.8,436.6h1.3v7.2h-1.3V436.6z"/>
	<path fill="#FFFFFF" d="M-177.8,436.6h1.7l3.4,5.4l0,0v-5.4h1.3v7.2h-1.6l-3.4-5.6l0,0v5.6h-1.3L-177.8,436.6L-177.8,436.6z"/>
	<path fill="#FFFFFF" d="M-163.4,443.5c-0.4,0.2-0.8,0.3-1.2,0.4s-0.9,0.1-1.5,0.1c-0.6,0-1.1-0.1-1.6-0.3c-0.5-0.2-0.9-0.4-1.2-0.8
		c-0.3-0.3-0.6-0.7-0.8-1.2s-0.3-1-0.3-1.5c0-0.6,0.1-1.1,0.3-1.6s0.5-0.9,0.8-1.2c0.3-0.3,0.8-0.6,1.2-0.8c0.5-0.2,1-0.3,1.6-0.3
		c0.6,0,1.1,0.1,1.6,0.2c0.5,0.2,0.9,0.4,1.2,0.7l-0.9,1c-0.2-0.2-0.4-0.4-0.8-0.5c-0.3-0.1-0.7-0.2-1.1-0.2s-0.7,0.1-1,0.2
		s-0.6,0.3-0.8,0.6c-0.2,0.2-0.4,0.5-0.5,0.8c-0.1,0.3-0.2,0.7-0.2,1c0,0.4,0.1,0.7,0.2,1.1s0.3,0.6,0.5,0.8
		c0.2,0.2,0.5,0.4,0.8,0.6c0.3,0.1,0.7,0.2,1.1,0.2c0.6,0,1-0.1,1.4-0.3v-1.8h-1.5v-1.1h2.8L-163.4,443.5L-163.4,443.5z"/>
	<path fill="#FFFFFF" d="M-242.7,447.6h2.4c0.4,0,0.8,0,1.1,0.1c0.3,0.1,0.6,0.2,0.9,0.4c0.2,0.2,0.4,0.4,0.6,0.7
		c0.1,0.3,0.2,0.6,0.2,1c0,0.4-0.1,0.7-0.2,1c-0.1,0.3-0.4,0.5-0.6,0.7c-0.3,0.2-0.6,0.3-0.9,0.4s-0.7,0.1-1.1,0.1h-1v3h-1.4V447.6z
		 M-240.5,450.7c0.2,0,0.4,0,0.6,0c0.2,0,0.4-0.1,0.5-0.2c0.1-0.1,0.3-0.2,0.4-0.3c0.1-0.1,0.1-0.3,0.1-0.5c0-0.2,0-0.4-0.1-0.5
		c-0.1-0.1-0.2-0.2-0.4-0.3c-0.1-0.1-0.3-0.1-0.5-0.1c-0.2,0-0.4,0-0.6,0h-0.9v2.1h0.9V450.7z"/>
	<path fill="#FFFFFF" d="M-236.6,447.6h2.5c0.3,0,0.7,0,1,0.1c0.3,0.1,0.6,0.2,0.9,0.4c0.2,0.2,0.4,0.4,0.6,0.6
		c0.1,0.3,0.2,0.6,0.2,1c0,0.5-0.1,1-0.4,1.3s-0.7,0.6-1.2,0.7l1.9,3.2h-1.6l-1.7-3.1h-1v3.1h-1.2V447.6z M-234.3,450.7
		c0.2,0,0.4,0,0.6,0s0.3-0.1,0.5-0.2c0.1-0.1,0.3-0.2,0.4-0.3c0.1-0.1,0.1-0.3,0.1-0.5c0-0.2,0-0.4-0.1-0.5
		c-0.1-0.1-0.2-0.2-0.3-0.3c-0.1-0.1-0.3-0.1-0.5-0.2c-0.2,0-0.3,0-0.5,0h-1.3v2H-234.3z"/>
	<path fill="#FFFFFF" d="M-230.7,451.2c0-0.6,0.1-1.1,0.3-1.6c0.2-0.5,0.5-0.9,0.8-1.2c0.3-0.3,0.8-0.6,1.2-0.8
		c0.5-0.2,1-0.3,1.5-0.3c0.6,0,1.1,0.1,1.6,0.3c0.5,0.2,0.9,0.4,1.2,0.8c0.3,0.3,0.6,0.7,0.8,1.2s0.3,1,0.3,1.6
		c0,0.6-0.1,1.1-0.3,1.5c-0.2,0.5-0.5,0.9-0.8,1.2c-0.3,0.3-0.8,0.6-1.2,0.8c-0.5,0.2-1,0.3-1.6,0.3c-0.6,0-1.1-0.1-1.5-0.3
		c-0.5-0.2-0.9-0.4-1.2-0.8c-0.3-0.3-0.6-0.7-0.8-1.2C-230.6,452.3-230.7,451.7-230.7,451.2z M-229.3,451.2c0,0.4,0.1,0.7,0.2,1.1
		c0.1,0.3,0.3,0.6,0.5,0.8c0.2,0.2,0.5,0.4,0.8,0.6c0.3,0.1,0.6,0.2,1,0.2c0.4,0,0.7-0.1,1-0.2c0.3-0.1,0.6-0.3,0.8-0.6
		c0.2-0.2,0.4-0.5,0.5-0.8c0.1-0.3,0.2-0.7,0.2-1.1c0-0.4-0.1-0.7-0.2-1c-0.1-0.3-0.3-0.6-0.5-0.8c-0.2-0.2-0.5-0.4-0.8-0.6
		c-0.3-0.1-0.6-0.2-1-0.2c-0.4,0-0.7,0.1-1,0.2c-0.3,0.1-0.6,0.3-0.8,0.6c-0.2,0.2-0.4,0.5-0.5,0.8
		C-229.3,450.5-229.3,450.8-229.3,451.2z"/>
	<path fill="#FFFFFF" d="M-221.9,447.6h4.7v1.1h-3.4v2h3.2v1.1h-3.2v3h-1.3V447.6z"/>
	<path fill="#FFFFFF" d="M-216.2,447.6h4.8v1.1h-3.5v1.8h3.3v1.1h-3.3v2h3.7v1.1h-5V447.6z"/>
	<path fill="#FFFFFF" d="M-206.5,449.1c-0.1-0.2-0.3-0.3-0.6-0.4c-0.2-0.1-0.5-0.2-0.7-0.2c-0.1,0-0.3,0-0.4,0.1
		c-0.1,0-0.3,0.1-0.4,0.2c-0.1,0.1-0.2,0.2-0.3,0.3c-0.1,0.1-0.1,0.3-0.1,0.5c0,0.2,0,0.3,0.1,0.4c0.1,0.1,0.2,0.2,0.3,0.3
		c0.1,0.1,0.3,0.2,0.4,0.2c0.2,0.1,0.4,0.1,0.6,0.2c0.2,0.1,0.5,0.2,0.7,0.3c0.2,0.1,0.5,0.2,0.7,0.4c0.2,0.2,0.4,0.4,0.5,0.6
		c0.1,0.2,0.2,0.5,0.2,0.9s-0.1,0.7-0.2,1c-0.1,0.3-0.3,0.5-0.6,0.7c-0.2,0.2-0.5,0.3-0.8,0.4c-0.3,0.1-0.7,0.1-1,0.1
		c-0.5,0-0.9-0.1-1.4-0.3c-0.4-0.2-0.8-0.4-1.1-0.8l0.9-0.9c0.2,0.2,0.4,0.4,0.7,0.6c0.3,0.1,0.6,0.2,0.9,0.2c0.1,0,0.3,0,0.5-0.1
		c0.2,0,0.3-0.1,0.4-0.2c0.1-0.1,0.2-0.2,0.3-0.3s0.1-0.3,0.1-0.5s0-0.3-0.1-0.5c-0.1-0.1-0.2-0.2-0.4-0.3c-0.1-0.1-0.3-0.2-0.5-0.2
		c-0.2-0.1-0.4-0.1-0.6-0.2c-0.2-0.1-0.4-0.1-0.7-0.2c-0.2-0.1-0.4-0.2-0.6-0.4s-0.3-0.3-0.4-0.6c-0.1-0.2-0.2-0.5-0.2-0.9
		c0-0.4,0.1-0.7,0.2-0.9c0.2-0.3,0.4-0.5,0.6-0.7c0.2-0.2,0.5-0.3,0.8-0.4c0.3-0.1,0.6-0.1,1-0.1s0.7,0.1,1.1,0.2
		c0.4,0.1,0.7,0.3,1,0.6L-206.5,449.1z"/>
	<path fill="#FFFFFF" d="M-200.8,449.1c-0.1-0.2-0.3-0.3-0.6-0.4c-0.2-0.1-0.5-0.2-0.7-0.2c-0.1,0-0.3,0-0.4,0.1
		c-0.1,0-0.3,0.1-0.4,0.2c-0.1,0.1-0.2,0.2-0.3,0.3c-0.1,0.1-0.1,0.3-0.1,0.5c0,0.2,0,0.3,0.1,0.4c0.1,0.1,0.2,0.2,0.3,0.3
		c0.1,0.1,0.3,0.2,0.4,0.2c0.2,0.1,0.4,0.1,0.6,0.2c0.2,0.1,0.5,0.2,0.7,0.3s0.5,0.2,0.7,0.4c0.2,0.2,0.4,0.4,0.5,0.6
		s0.2,0.5,0.2,0.9s-0.1,0.7-0.2,1c-0.1,0.3-0.3,0.5-0.6,0.7c-0.2,0.2-0.5,0.3-0.8,0.4c-0.3,0.1-0.7,0.1-1,0.1
		c-0.5,0-0.9-0.1-1.4-0.3c-0.4-0.2-0.8-0.4-1.1-0.8l0.9-0.9c0.2,0.2,0.4,0.4,0.7,0.6c0.3,0.1,0.6,0.2,0.9,0.2c0.1,0,0.3,0,0.5-0.1
		c0.2,0,0.3-0.1,0.4-0.2c0.1-0.1,0.2-0.2,0.3-0.3c0.1-0.1,0.1-0.3,0.1-0.5s0-0.3-0.1-0.5c-0.1-0.1-0.2-0.2-0.4-0.3
		c-0.1-0.1-0.3-0.2-0.5-0.2c-0.2-0.1-0.4-0.1-0.6-0.2c-0.2-0.1-0.4-0.1-0.7-0.2s-0.4-0.2-0.6-0.4c-0.2-0.2-0.3-0.3-0.4-0.6
		c-0.1-0.2-0.2-0.5-0.2-0.9c0-0.4,0.1-0.7,0.2-0.9c0.2-0.3,0.4-0.5,0.6-0.7c0.2-0.2,0.5-0.3,0.8-0.4c0.3-0.1,0.6-0.1,1-0.1
		c0.4,0,0.7,0.1,1.1,0.2c0.4,0.1,0.7,0.3,1,0.6L-200.8,449.1z"/>
	<path fill="#FFFFFF" d="M-198.8,447.6h1.3v7.2h-1.3V447.6z"/>
	<path fill="#FFFFFF" d="M-196.4,451.2c0-0.6,0.1-1.1,0.3-1.6c0.2-0.5,0.5-0.9,0.8-1.2c0.3-0.3,0.8-0.6,1.2-0.8
		c0.5-0.2,1-0.3,1.5-0.3c0.6,0,1.1,0.1,1.6,0.3c0.5,0.2,0.9,0.4,1.2,0.8c0.3,0.3,0.6,0.7,0.8,1.2c0.2,0.5,0.3,1,0.3,1.6
		c0,0.6-0.1,1.1-0.3,1.5c-0.2,0.5-0.5,0.9-0.8,1.2c-0.3,0.3-0.8,0.6-1.2,0.8c-0.5,0.2-1,0.3-1.6,0.3c-0.6,0-1.1-0.1-1.5-0.3
		c-0.5-0.2-0.9-0.4-1.2-0.8c-0.3-0.3-0.6-0.7-0.8-1.2C-196.3,452.3-196.4,451.7-196.4,451.2z M-195,451.2c0,0.4,0.1,0.7,0.2,1.1
		c0.1,0.3,0.3,0.6,0.5,0.8c0.2,0.2,0.5,0.4,0.8,0.6c0.3,0.1,0.6,0.2,1,0.2s0.7-0.1,1-0.2c0.3-0.1,0.6-0.3,0.8-0.6
		c0.2-0.2,0.4-0.5,0.5-0.8c0.1-0.3,0.2-0.7,0.2-1.1c0-0.4-0.1-0.7-0.2-1c-0.1-0.3-0.3-0.6-0.5-0.8c-0.2-0.2-0.5-0.4-0.8-0.6
		c-0.3-0.1-0.6-0.2-1-0.2s-0.7,0.1-1,0.2c-0.3,0.1-0.6,0.3-0.8,0.6c-0.2,0.2-0.4,0.5-0.5,0.8C-194.9,450.5-195,450.8-195,451.2z"/>
	<path fill="#FFFFFF" d="M-187.6,447.6h1.7l3.4,5.4l0,0v-5.4h1.3v7.2h-1.6l-3.4-5.6l0,0v5.6h-1.3v-7.2H-187.6z"/>
	<path fill="#FFFFFF" d="M-177.5,447.6h1.1l3.1,7.2h-1.5l-0.7-1.7h-3.1l-0.7,1.7h-1.4L-177.5,447.6z M-175.9,452.1l-1.1-2.9
		l-1.1,2.9H-175.9z"/>
	<path fill="#FFFFFF" d="M-172.7,447.6h1.3v6.1h3.1v1.1h-4.4V447.6z"/>
	<path fill="#FFFFFF" d="M-164,449.1c-0.1-0.2-0.3-0.3-0.6-0.4c-0.2-0.1-0.5-0.2-0.7-0.2c-0.2,0-0.3,0-0.4,0.1
		c-0.1,0-0.3,0.1-0.4,0.2c-0.1,0.1-0.2,0.2-0.3,0.3s-0.1,0.3-0.1,0.5c0,0.2,0,0.3,0.1,0.4c0.1,0.1,0.2,0.2,0.3,0.3
		c0.1,0.1,0.3,0.2,0.4,0.2s0.4,0.1,0.6,0.2c0.2,0.1,0.5,0.2,0.7,0.3c0.2,0.1,0.5,0.2,0.7,0.4c0.2,0.2,0.4,0.4,0.5,0.6
		c0.1,0.2,0.2,0.5,0.2,0.9s-0.1,0.7-0.2,1c-0.1,0.3-0.3,0.5-0.6,0.7c-0.2,0.2-0.5,0.3-0.8,0.4s-0.7,0.1-1,0.1
		c-0.5,0-0.9-0.1-1.4-0.3c-0.4-0.2-0.8-0.4-1.1-0.8l0.9-0.9c0.2,0.2,0.4,0.4,0.7,0.6c0.3,0.1,0.6,0.2,0.9,0.2c0.1,0,0.3,0,0.5-0.1
		c0.2,0,0.3-0.1,0.4-0.2c0.1-0.1,0.2-0.2,0.3-0.3c0.1-0.1,0.1-0.3,0.1-0.5s0-0.3-0.1-0.5c-0.1-0.1-0.2-0.2-0.4-0.3
		c-0.1-0.1-0.3-0.2-0.5-0.2c-0.2-0.1-0.4-0.1-0.6-0.2c-0.2-0.1-0.4-0.1-0.7-0.2c-0.2-0.1-0.4-0.2-0.6-0.4s-0.3-0.3-0.4-0.6
		c-0.1-0.2-0.2-0.5-0.2-0.9c0-0.4,0.1-0.7,0.2-0.9c0.2-0.3,0.4-0.5,0.6-0.7s0.5-0.3,0.8-0.4c0.3-0.1,0.6-0.1,1-0.1s0.7,0.1,1.1,0.2
		c0.4,0.1,0.7,0.3,1,0.6L-164,449.1z"/>
</g>
</svg>
