<svg id="Layer_3" data-name="Layer 3" xmlns="http://www.w3.org/2000/svg" viewBox="0 0 18.66 19.9"><defs><style>.cls-1{fill:#eac242;}</style></defs><path class="cls-1" d="M18.08,5H8.13V3.78H10A1.87,1.87,0,1,0,10,.05H6.89A1.24,1.24,0,0,0,5.65,1.29V5H1.92A1.25,1.25,0,0,0,.67,6.27v7.46A1.25,1.25,0,0,0,1.92,15H8.13v5h5V15h5a1.25,1.25,0,0,0,1.25-1.25V6.27A1.25,1.25,0,0,0,18.08,5ZM10.62,18.71H9.38V15h1.24Zm7.46-5H1.92V6.27H5.65V10a1.24,1.24,0,0,0,2.48,0V6.27h9.95Z" transform="translate(-0.67 -0.05)"/></svg>