<?xml version="1.0" encoding="utf-8"?>
<!-- Generator: Adobe Illustrator 18.1.1, SVG Export Plug-In . SVG Version: 6.00 Build 0)  -->
<svg version="1.1" id="Layer_1" xmlns="http://www.w3.org/2000/svg" xmlns:xlink="http://www.w3.org/1999/xlink" x="0px" y="0px"
	 viewBox="0 0 20 20" enable-background="new 0 0 20 20" xml:space="preserve">
<g>
	<path fill="#EAC242" d="M16.2,15.8c-0.3-0.7-3.7-1.7-4-1.7l-0.2,0c-0.5,0.1-1,0.5-2.1,1.5c-1.2-0.6-2.9-2.1-3.7-3
		c-0.9-1-1.9-2.6-2.3-3.8c1.2-1.1,1.8-1.6,1.8-2.1c0-0.3-0.6-3.8-1.2-4.2L4.3,2.5C3.9,2.2,3.3,1.8,2.7,2C2.5,2,2.4,2,2.2,2.1
		c-0.4,0.3-1.5,1-2,2c-0.3,0.6-0.4,6.2,3.8,11c4.2,4.7,9.3,4.9,10.1,4.7l0,0l0.1,0c1-0.4,1.9-1.4,2.3-1.8c0.6-0.8,0.2-1.7-0.1-2.1
		L16.2,15.8z"/>
	<path fill="#EAC242" d="M10.9,9.1c0.3,0.3,0.4,0.7,0.3,1.1l1.3,0c0.1-0.7-0.2-1.4-0.7-2c-0.5-0.5-1.3-0.8-2-0.7l0,1.3
		C10.2,8.7,10.6,8.8,10.9,9.1z"/>
	<path fill="#EAC242" d="M15,10.2l1.2,0c0-1.6-0.5-3.3-1.8-4.6c-1.3-1.3-2.9-1.9-4.6-1.8l0,1.2c1.3-0.1,2.7,0.4,3.7,1.4
		C14.5,7.5,15,8.8,15,10.2z"/>
	<path fill="#EAC242" d="M17,3c-2-2-4.6-2.9-7.2-2.9l0,1.2c2.3,0,4.6,0.8,6.3,2.5c1.7,1.7,2.6,4,2.5,6.3l1.2,0C20,7.5,19,4.9,17,3z"
		/>
</g>
</svg>
