<?xml version="1.0" encoding="utf-8"?>
<!-- Generator: Adobe Illustrator 19.1.0, SVG Export Plug-In . SVG Version: 6.00 Build 0)  -->
<svg version="1.1" id="Layer_1" xmlns="http://www.w3.org/2000/svg" xmlns:xlink="http://www.w3.org/1999/xlink" x="0px" y="0px"
	 width="16px" height="16px" viewBox="-297 389 16 16" enable-background="new -297 389 16 16" xml:space="preserve">
<g id="biz_structure" display="none">
	<path display="inline" fill="#684B1B" d="M-283,401v-4h-5.5v-4h3v-4h-7v4h3v4h-5.5v4h-2v4h4v-4h-1v-3h4.5v3h-1.5v4h4v-4h-1.5v-3
		h4.5v3h-1v4h4v-4H-283z M-291.5,392v-2h5v2H-291.5z M-294,404h-2v-2h2V404z M-288,402v2h-2v-2H-288z M-282,404h-2v-2h2V404z"/>
</g>
<g id="bookkeeping" display="none">
	<path display="inline" fill="#684B1B" d="M-289,393.5c0-2.5-5.6-3-8-3v11h0.5c0.2,0,0.3,0,0.5,0v1c2,0,6-0.6,6,1h2c0-1.6,4-1,6-1
		v-1c0.2,0,0.3,0,0.5,0h0.5v-11C-283.4,390.5-289,391-289,393.5z M-290,400.9c-1.5-0.8-4.2-0.9-6-0.9v-8.5c0.5,0,0.9,0,1.4,0.1h0.2
		h0.1c2,0.1,4.1,0.6,4.3,1.7v0.2V400.9z M-282,400c-1.8,0-4.5,0.1-6,0.9v-7.4c0-0.7,1.1-2,6-2V400z"/>
</g>
<g id="tax">
	<g>
		<path fill="#684B1B" d="M-283.5,389h-11c-0.8,0-1.5,0.7-1.5,1.5v13c0,0.8,0.7,1.5,1.5,1.5h11c0.8,0,1.5-0.7,1.5-1.5v-13
			C-282,389.7-282.7,389-283.5,389z M-283,403.5c0,0.3-0.2,0.5-0.5,0.5h-11c-0.3,0-0.5-0.2-0.5-0.5v-13c0-0.3,0.2-0.5,0.5-0.5h11
			c0.3,0,0.5,0.2,0.5,0.5V403.5z"/>
		<rect x="-294" y="391" fill="#684B1B" width="10" height="3"/>
		<rect x="-294" y="395" fill="#684B1B" width="2" height="2"/>
		<rect x="-294" y="398" fill="#684B1B" width="2" height="2"/>
		<rect x="-294" y="401" fill="#684B1B" width="2" height="2"/>
		<rect x="-291" y="395" fill="#684B1B" width="2" height="2"/>
		<rect x="-291" y="398" fill="#684B1B" width="2" height="2"/>
		<rect x="-291" y="401" fill="#684B1B" width="2" height="2"/>
		<rect x="-288" y="395" fill="#684B1B" width="4" height="2"/>
		<rect x="-288" y="398" fill="#684B1B" width="2" height="2"/>
		<rect x="-288" y="401" fill="#684B1B" width="2" height="2"/>
		<rect x="-285" y="398" fill="#684B1B" width="1" height="1"/>
		<rect x="-285" y="400" fill="#684B1B" width="1" height="1"/>
		<rect x="-285" y="402" fill="#684B1B" width="1" height="1"/>
	</g>
</g>
<g id="payroll_1_" display="none">
	<g display="inline">
		<path fill="#684B1B" d="M-286.5,389c-2.9,0-5.2,2.2-5.5,5c-2.8,0.2-5,2.6-5,5.5c0,3,2.5,5.5,5.5,5.5c2.9,0,5.2-2.2,5.5-5
			c2.8-0.2,5-2.6,5-5.5C-281,391.5-283.5,389-286.5,389z M-291.6,399.9h0.4c0.2,0,0.4,0.1,0.4,0.4v0.8c0,0.3-0.2,0.4-0.4,0.4h-0.4
			V399.9z M-291.5,404c-2.5,0-4.5-2-4.5-4.5c0-2.3,1.8-4.2,4-4.5c0,0.3,0.1,0.7,0.2,1h-0.1c-0.3,0-0.4,0.2-0.4,0.4v0.4h-0.4
			c-0.5,0-1.2,0.3-1.2,1.2v0.8c0,0.9,0.7,1.2,1.2,1.2h0.4v1.6h-1.2c-0.2,0-0.4,0.2-0.4,0.4s0.2,0.4,0.4,0.4h1.2v0.4
			c0,0.2,0.2,0.4,0.4,0.4c0.2,0,0.4-0.2,0.4-0.4v-0.4h0.4c0.5,0,1.2-0.3,1.2-1.2v-0.8c0-0.9-0.7-1.2-1.2-1.2h-0.5v-1.6h0.5
			c0.9,1.3,2.3,2.2,4,2.4C-287.3,402.2-289.2,404-291.5,404z M-292.3,397.6v1.6h-0.4c-0.2,0-0.4-0.1-0.4-0.4v-0.9
			c0-0.3,0.2-0.4,0.4-0.4h0.4V397.6z M-286.5,399c-2.5,0-4.5-2-4.5-4.5s2-4.5,4.5-4.5s4.5,2,4.5,4.5S-284,399-286.5,399z"/>
		<path fill="#684B1B" d="M-284.5,392.6c0.2,0,0.4-0.2,0.4-0.4c0-0.2-0.2-0.4-0.4-0.4h-1.2v-0.4c0-0.2-0.2-0.4-0.4-0.4
			c-0.2,0-0.4,0.2-0.4,0.4v0.4h-0.4c-0.4,0-1.1,0.3-1.1,1.1v0.8c0,0.9,0.7,1.2,1.2,1.2h0.4v1.6h-1.2c-0.2-0.1-0.4,0.1-0.4,0.3
			c0,0.2,0.2,0.4,0.4,0.4h1.2v0.4c0,0.2,0.2,0.4,0.4,0.4s0.4-0.2,0.4-0.4v-0.4h0.4c0.5,0,1.2-0.3,1.2-1.2v-0.7
			c0-0.9-0.7-1.2-1.2-1.2h-0.4v-1.5H-284.5z M-286.4,394.1h-0.4c-0.2,0-0.4-0.1-0.4-0.4v-0.8c0-0.3,0.2-0.4,0.4-0.4h0.4
			C-286.4,392.5-286.4,394.1-286.4,394.1z M-285.3,394.9c0.2,0,0.4,0.1,0.4,0.4v0.8c0,0.3-0.2,0.4-0.4,0.4h-0.4v-1.6H-285.3z"/>
	</g>
</g>
<g id="biz_coach" display="none">
	
		<path display="inline" fill="none" stroke="#684B1B" stroke-width="1.2" stroke-linecap="round" stroke-linejoin="round" stroke-miterlimit="10" d="
		M-284.9,397.2c0.5-0.1,1.5-0.5,1.5-1.2c0-0.6-0.5-1-1.1-1l-4.3,0.5h-0.6c0,0,0.9-0.4,0.2-3.6c-0.7-3.2-2.5-2-2.5-2s0,2.8-0.1,3.1
		c-0.1,0.4-2.2,4.5-2.2,4.5c0,0.2-1.3,0.4-1.3,0.7c0,1.9,0,3.5,0,5.5c1.4-0.4,2.2,0.7,5.2,0.7c1,0,2.2-0.2,3.2-0.3l2.7-0.3
		c0.5,0,0.8-0.6,0.7-1.2c0-0.5-1-0.8-1.3-1h1c0.5-0.1,0.9-0.6,0.9-1.2c-0.1-0.5-1.2-0.9-1.6-1h0.9c0.6-0.1,1-0.6,1-1.2
		C-282.8,397.4-284.3,397.2-284.9,397.2"/>
</g>
</svg>
