<?xml version="1.0" encoding="utf-8"?>
<!-- Generator: Adobe Illustrator 19.1.0, SVG Export Plug-In . SVG Version: 6.00 Build 0)  -->
<svg version="1.1" id="Layer_1" xmlns="http://www.w3.org/2000/svg" xmlns:xlink="http://www.w3.org/1999/xlink" x="0px" y="0px"
	 width="130px" height="66px" viewBox="-240 364 130 66" enable-background="new -240 364 130 66" xml:space="preserve">
<g>
	<path fill="#CEC5D6" d="M-208,419v-14.3c0-0.7-0.3-1.3-0.4-2c-0.1-0.6-0.4-1.2-0.7-1.6c-0.3-0.5-0.7-0.8-1.1-1.1
		c-0.4-0.3-1-0.4-1.8-0.4c-0.7,0-1.3,0.1-1.8,0.4c-0.5,0.3-0.9,0.7-1.3,1.2c-0.3,0.5-0.6,1-0.7,1.7c-0.2,0.6-0.2,1.3-0.2,2V419h-9
		v-14.9c0-1.4,0.2-2.5-0.3-3.3c-0.6-0.8-1.2-1.2-2.4-1.2c-1.3,0-1.9,0.5-2.6,1.5s-0.7,2.2-0.7,3.7V419h-9v11h39v-11H-208z"/>
	<path fill="#CEC5D6" d="M-232,394v3h0.3c0.3,0,0.7-1,1.1-1.5c0.4-0.5,1-0.9,1.6-1.3c0.6-0.4,1.3-0.7,2.1-0.9
		c0.8-0.2,1.6-0.3,2.5-0.3c1.8,0,3.2,0.4,4.5,1.1c1.2,0.7,2.2,1.7,2.9,3.1c0.8-1.3,1.9-2.3,3.1-3c1.3-0.7,2.8-1.1,4.6-1.1
		c1.7,0,3,0.3,4.2,0.9c1.1,0.6,2,1.4,2.7,2.3c0.7,1,1.1,2,1.4,3.2c0,0.1,0,0.2,0,0.3V379h-39v15H-232z"/>
</g>
<g>
	<path fill="#CEC5D6" d="M-148,379v51h6v-36h8v3h-0.4c0.7-1,1.8-2,3.1-2.7c1.3-0.7,2.9-1.2,4.7-1.2c1.8,0,3.3,0.3,4.8,1
		c1.4,0.7,2.6,1.6,3.6,2.8c1,1.2,1.8,2.5,2.3,4.1c0.5,1.5,0.8,3.2,0.8,4.8c0,1.7-0.3,3.3-0.8,4.9c-0.5,1.6-1.3,2.9-2.3,4.1
		c-1,1.2-2.2,2.1-3.6,2.9c-1.4,0.7-3.1,1.1-4.9,1.1c-1.5,0-2.9-0.4-4.2-1c-1.3-0.6-2.4-1.6-3.1-2.6h0.1v15h24V379H-148z"/>
	<path fill="#CEC5D6" d="M-132.9,410.1c0.5,0.6,1.1,1.1,1.8,1.4c0.7,0.4,1.5,0.5,2.4,0.5c0.9,0,1.8-0.2,2.5-0.5
		c0.7-0.4,1.3-0.8,1.8-1.4s0.8-1.3,1.1-2c0.2-0.8,0.4-1.5,0.4-2.3c0-0.8-0.1-1.5-0.4-2.3c-0.2-0.7-0.6-1.4-1.1-2s-1.1-1-1.8-1.4
		c-0.7-0.4-1.5-0.5-2.5-0.5c-0.9,0-1.7,0.2-2.4,0.5c-0.7,0.4-1.3,0.8-1.8,1.4s-0.9,1.3-1.2,2c-0.3,0.7-0.4,1.5-0.4,2.3
		c0,0.8,0.1,1.5,0.4,2.3C-133.8,408.8-133.4,409.5-132.9,410.1z"/>
</g>
<g>
	<path fill="#CEC5D6" d="M-194,364v47h38v-47H-194z M-164,403h-7v-3l0,0c-1.3,1.3-2.3,1.8-3.6,2.4c-1.3,0.6-2.6,0.9-4.1,0.9
		c-1,0-2-0.1-3-0.4c-1-0.3-2-0.7-2.9-1.3c-0.9-0.6-1.6-1.4-2.1-2.3c-0.6-1-0.8-2.2-0.8-3.6c0-1.8,0.5-3.2,1.4-4.2
		c1-1.1,2.2-1.9,3.7-2.5s3.1-1,5-1.2c1.9-0.2,3.4-0.3,5.4-0.3v-0.4c0-1.2-0.4-2.1-1.2-2.7c-0.8-0.6-1.9-0.9-3.1-0.9
		c-1.1,0-2.2,0.2-3.3,0.7c-1.1,0.5-2,1.1-2.7,1.8l-4-4.3c1.4-1.4,3.1-2.4,5-3.1s3.8-1,5.8-1s3.8,0.3,5.2,0.8s2.6,1.3,3.4,2.3
		c0.9,1.1,1.7,2.4,2.1,4s0.8,3.5,0.8,5.7L-164,403L-164,403z"/>
	<path fill="#CEC5D6" d="M-175.3,392.2c-0.9,0.1-1.7,0.3-2.4,0.5c-0.7,0.2-1.3,0.6-1.7,1c-0.5,0.4-0.7,1-0.7,1.7
		c0,0.5,0.1,0.8,0.3,1.2c0.2,0.3,0.5,0.6,0.8,0.8c0.3,0.2,0.7,0.3,1.1,0.4c0.4,0.1,0.8,0.1,1.2,0.1c1.6,0,3.2-0.4,4.1-1.3
		s1.6-2.1,1.6-3.6v-1h-1.7C-173.5,392-174.4,392.1-175.3,392.2z"/>
</g>
</svg>
