<?xml version="1.0" encoding="utf-8"?>
<!-- Generator: Adobe Illustrator 19.1.0, SVG Export Plug-In . SVG Version: 6.00 Build 0)  -->
<svg version="1.1" id="Layer_1" xmlns="http://www.w3.org/2000/svg" xmlns:xlink="http://www.w3.org/1999/xlink" x="0px" y="0px"
	 width="30px" height="30px" viewBox="-290 382 30 30" enable-background="new -290 382 30 30" xml:space="preserve">
<g>
	<path fill="#AD3B8F" d="M-270.4,382.1c-5,0-9.2,3.9-9.6,8.8c-4.9,0.4-8.8,4.5-8.8,9.6c0,5.3,4.3,9.6,9.6,9.6c5,0,9.2-3.9,9.6-8.8
		c4.9-0.4,8.8-4.5,8.8-9.6C-260.8,386.4-265.1,382.1-270.4,382.1z M-279.3,401.2h0.7c0.3,0,0.7,0.1,0.7,0.7v1.4
		c0,0.5-0.4,0.7-0.7,0.7h-0.7V401.2z M-279.2,408.4c-4.3,0-7.9-3.5-7.9-7.9c0-4.1,3.1-7.4,7-7.8c0.1,0.6,0.2,1.2,0.3,1.7
		c-0.1,0-0.2-0.1-0.3-0.1c-0.4,0-0.7,0.3-0.7,0.7v0.7h-0.5c-0.8,0-2,0.5-2,2v1.4c0,1.5,1.2,2,2,2h0.7v2.7h-2c-0.4,0-0.7,0.3-0.7,0.7
		s0.3,0.7,0.7,0.7h2v0.7c0,0.4,0.3,0.7,0.7,0.7s0.7-0.3,0.7-0.7v-0.7h0.7c0.8,0,2-0.5,2-2v-1.4c0-1.5-1.2-2-2-2h-0.7v-2.7h0.8
		c1.6,2.3,4.1,3.9,7,4.2C-271.8,405.3-275.1,408.4-279.2,408.4z M-280.6,397.1v2.7h-0.7c-0.3,0-0.7-0.1-0.7-0.7v-1.4
		c0-0.5,0.4-0.7,0.7-0.7h0.7V397.1z M-270.4,399.6c-4.3,0-7.9-3.5-7.9-7.9c0-4.4,3.5-7.9,7.9-7.9c4.3,0,7.9,3.5,7.9,7.9
		C-262.5,396.1-266.1,399.6-270.4,399.6z"/>
	<path fill="#AD3B8F" d="M-266.9,388.3c0.4,0,0.7-0.3,0.7-0.7s-0.3-0.7-0.7-0.7h-2v-0.6c0-0.4-0.3-0.7-0.7-0.7s-0.7,0.3-0.7,0.7v0.7
		h-0.7c-0.8,0-2,0.5-2,2v1.4c0,1.5,1.2,2,2,2h0.7v2.7h-2c-0.4,0-0.7,0.3-0.7,0.7c0,0.4,0.3,0.7,0.7,0.7h2v0.7c0,0.4,0.3,0.7,0.7,0.7
		s0.7-0.3,0.7-0.7v-0.7h0.7c0.8,0,2-0.5,2-2v-1.4c0-1.5-1.2-2-2-2h-0.8v-2.8H-266.9z M-270.3,391.1h-0.7c-0.3,0-0.7-0.1-0.7-0.7V389
		c0-0.5,0.4-0.7,0.7-0.7h0.7V391.1z M-268.3,392.4c0.3,0,0.7,0.1,0.7,0.7v1.4c0,0.5-0.4,0.7-0.7,0.7h-0.7v-2.7h0.7V392.4z"/>
</g>
</svg>
