<?xml version="1.0" encoding="utf-8"?>
<!-- Generator: Adobe Illustrator 18.1.1, SVG Export Plug-In . SVG Version: 6.00 Build 0)  -->
<svg version="1.1" id="Layer_1" xmlns="http://www.w3.org/2000/svg" xmlns:xlink="http://www.w3.org/1999/xlink" x="0px" y="0px"
	 viewBox="0 0 30 30" enable-background="new 0 0 30 30" xml:space="preserve">
<g>
	<path fill="#AD3B8F" d="M19.6,0.1c-5,0-9.2,3.9-9.6,8.8c-4.9,0.4-8.8,4.5-8.8,9.6c0,5.3,4.3,9.6,9.6,9.6c5,0,9.2-3.9,9.6-8.8
		c4.9-0.4,8.8-4.5,8.8-9.6C29.2,4.4,24.9,0.1,19.6,0.1z M10.7,19.2h0.7c0.3,0,0.7,0.1,0.7,0.7v1.4c0,0.5-0.4,0.7-0.7,0.7h-0.7V19.2z
		 M10.8,26.4c-4.3,0-7.9-3.5-7.9-7.9c0-4.1,3.1-7.4,7-7.8c0.1,0.6,0.2,1.2,0.3,1.7c-0.1,0-0.2-0.1-0.3-0.1c-0.4,0-0.7,0.3-0.7,0.7
		v0.7H8.7c-0.8,0-2,0.5-2,2v1.4c0,1.5,1.2,2,2,2h0.7v2.7h-2c-0.4,0-0.7,0.3-0.7,0.7c0,0.4,0.3,0.7,0.7,0.7h2v0.7
		c0,0.4,0.3,0.7,0.7,0.7c0.4,0,0.7-0.3,0.7-0.7v-0.7h0.7c0.8,0,2-0.5,2-2v-1.4c0-1.5-1.2-2-2-2h-0.7v-2.7h0.8c1.6,2.3,4.1,3.9,7,4.2
		C18.2,23.3,14.9,26.4,10.8,26.4z M9.4,15.1v2.7H8.7c-0.3,0-0.7-0.1-0.7-0.7v-1.4c0-0.5,0.4-0.7,0.7-0.7H9.4z M19.6,17.6
		c-4.3,0-7.9-3.5-7.9-7.9s3.5-7.9,7.9-7.9c4.3,0,7.9,3.5,7.9,7.9S23.9,17.6,19.6,17.6z"/>
	<path fill="#AD3B8F" d="M23.1,6.3c0.4,0,0.7-0.3,0.7-0.7c0-0.4-0.3-0.7-0.7-0.7h-2V4.3c0-0.4-0.3-0.7-0.7-0.7
		c-0.4,0-0.7,0.3-0.7,0.7V5H19c-0.8,0-2,0.5-2,2v1.4c0,1.5,1.2,2,2,2h0.7v2.7h-2c-0.4,0-0.7,0.3-0.7,0.7c0,0.4,0.3,0.7,0.7,0.7h2
		v0.7c0,0.4,0.3,0.7,0.7,0.7c0.4,0,0.7-0.3,0.7-0.7v-0.7h0.7c0.8,0,2-0.5,2-2v-1.4c0-1.5-1.2-2-2-2H21V6.3H23.1z M19.7,9.1H19
		c-0.3,0-0.7-0.1-0.7-0.7V7c0-0.5,0.4-0.7,0.7-0.7h0.7V9.1z M21.7,10.4c0.3,0,0.7,0.1,0.7,0.7v1.4c0,0.5-0.4,0.7-0.7,0.7H21v-2.7
		H21.7z"/>
</g>
</svg>
