<?xml version="1.0" encoding="utf-8"?>
<!-- Generator: Adobe Illustrator 19.1.0, SVG Export Plug-In . SVG Version: 6.00 Build 0)  -->
<svg version="1.1" id="Layer_1" xmlns="http://www.w3.org/2000/svg" xmlns:xlink="http://www.w3.org/1999/xlink" x="0px" y="0px"
	 width="100px" height="100px" viewBox="-255 347 100 100" enable-background="new -255 347 100 100" xml:space="preserve">
<path fill="#FFFFFF" d="M-155.4,433.3l-20.8-20.7c4.3-6.4,7.1-14.3,7.1-23c0-23.5-19.3-42.9-42.9-42.9s-43,19.4-43,43
	c0,23.6,19.3,42.9,43,42.9c8.7,0,16.4-2.9,23-6.4l20,20c1.4,1.4,2.9,1.4,4.3,0l8.7-8.7C-154.8,436.2-154.8,434.1-155.4,433.3z
	 M-212,420.5c-17.2,0-30.9-13.7-30.9-30.8c0-17.1,13.7-30.7,30.8-30.7s30.8,13.7,30.8,30.8C-181.3,406.9-195.6,420.5-212,420.5z"/>
</svg>
