<?xml version="1.0" encoding="utf-8"?>
<!-- Generator: Adobe Illustrator 18.1.1, SVG Export Plug-In . SVG Version: 6.00 Build 0)  -->
<svg version="1.1" id="Layer_1" xmlns="http://www.w3.org/2000/svg" xmlns:xlink="http://www.w3.org/1999/xlink" x="0px" y="0px"
	 viewBox="0 0 100 100" enable-background="new 0 0 100 100" xml:space="preserve">
<path fill="#FFFFFF" d="M99.6,86.3L78.8,65.6c4.3-6.4,7.1-14.3,7.1-23C85.9,19.1,66.6-0.3,43-0.3S0,19.1,0,42.7s19.3,42.9,43,42.9
	c8.7,0,16.4-2.9,23-6.4l20,20c1.4,1.4,2.9,1.4,4.3,0l8.7-8.7C100.2,89.2,100.2,87.1,99.6,86.3z M43,73.5
	c-17.2,0-30.9-13.7-30.9-30.8S25.8,12,42.9,12s30.8,13.7,30.8,30.8S59.4,73.5,43,73.5z"/>
</svg>
