<?xml version="1.0" encoding="utf-8"?>
<!-- Generator: Adobe Illustrator 19.1.0, SVG Export Plug-In . SVG Version: 6.00 Build 0)  -->
<svg version="1.1" id="Layer_1" xmlns="http://www.w3.org/2000/svg" xmlns:xlink="http://www.w3.org/1999/xlink" x="0px" y="0px"
	 width="30px" height="30px" viewBox="-290 382 30 30" enable-background="new -290 382 30 30" xml:space="preserve">
<g>
	<path fill="#AD3B8F" d="M-265.4,382.1h-19.2c-1.4,0-2.6,1.2-2.6,2.6v22.8c0,1.4,1.2,2.6,2.6,2.6h19.2c1.4,0,2.6-1.2,2.6-2.6v-22.8
		C-262.8,383.2-263.9,382.1-265.4,382.1z M-264.5,407.4c0,0.5-0.4,0.9-0.9,0.9h-19.2c-0.5,0-0.9-0.4-0.9-0.9v-22.7
		c0-0.5,0.4-0.9,0.9-0.9h19.2c0.5,0,0.9,0.4,0.9,0.9V407.4z"/>
	<rect x="-283.8" y="385.6" fill="#AD3B8F" width="17.5" height="5.2"/>
	<rect x="-283.8" y="392.6" fill="#AD3B8F" width="3.5" height="3.5"/>
	<rect x="-283.8" y="397.8" fill="#AD3B8F" width="3.5" height="3.5"/>
	<rect x="-283.8" y="403.1" fill="#AD3B8F" width="3.5" height="3.5"/>
	<rect x="-278.5" y="392.6" fill="#AD3B8F" width="3.5" height="3.5"/>
	<rect x="-278.5" y="397.8" fill="#AD3B8F" width="3.5" height="3.5"/>
	<rect x="-278.5" y="403.1" fill="#AD3B8F" width="3.5" height="3.5"/>
	<rect x="-273.2" y="392.6" fill="#AD3B8F" width="7" height="3.5"/>
	<rect x="-273.2" y="397.8" fill="#AD3B8F" width="3.5" height="3.5"/>
	<rect x="-273.2" y="403.1" fill="#AD3B8F" width="3.5" height="3.5"/>
	<rect x="-268" y="397.8" fill="#AD3B8F" width="1.8" height="1.8"/>
	<rect x="-268" y="401.3" fill="#AD3B8F" width="1.8" height="1.8"/>
	<rect x="-268" y="404.8" fill="#AD3B8F" width="1.8" height="1.8"/>
</g>
</svg>
