<?xml version="1.0" encoding="utf-8"?>
<!-- Generator: Adobe Illustrator 18.1.1, SVG Export Plug-In . SVG Version: 6.00 Build 0)  -->
<svg version="1.1" id="Layer_1" xmlns="http://www.w3.org/2000/svg" xmlns:xlink="http://www.w3.org/1999/xlink" x="0px" y="0px"
	 viewBox="0 0 30 30" enable-background="new 0 0 30 30" xml:space="preserve">
<path fill="none" stroke="#AD3B8F" stroke-width="2" stroke-linecap="round" stroke-linejoin="round" stroke-miterlimit="10" d="
	M7.7,14.5c-0.9-0.1-2.7-0.9-2.7-2.1c0-1.1,0.9-1.8,1.9-1.8l7.7,0.8l1.1,0c0,0-1.6-0.7-0.4-6.4c1.2-5.7,4.4-3.5,4.4-3.5
	s0,4.9,0.2,5.5c0.2,0.7,3.9,8,3.9,8c0,0.4,2.3,0.8,2.3,1.2c0,3.3,0,6.2,0,9.7c-2.5-0.6-3.8,1.3-9.1,1.3c-1.7,0-3.9-0.3-5.7-0.6
	L6.6,26c-0.8-0.1-1.4-1-1.3-2.1c0.1-0.8,1.7-1.5,2.3-1.7l-1.8-0.1c-0.9-0.1-1.6-1-1.5-2.1c0.1-0.9,2-1.6,2.8-1.7l-1.5,0
	c-1.1-0.1-1.8-1.1-1.7-2.1C4,14.8,6.7,14.4,7.7,14.5"/>
</svg>
