<?xml version="1.0" encoding="utf-8"?>
<!-- Generator: Adobe Illustrator 18.1.1, SVG Export Plug-In . SVG Version: 6.00 Build 0)  -->
<svg version="1.1" xmlns="http://www.w3.org/2000/svg" xmlns:xlink="http://www.w3.org/1999/xlink" x="0px" y="0px"
	 viewBox="0 0 20 20" enable-background="new 0 0 20 20" xml:space="preserve">
<g id="Layer_1" display="none">
	<g display="inline">
		<path fill="#EAC242" d="M16.2,15.8c-0.3-0.7-3.7-1.7-4-1.7l-0.2,0c-0.5,0.1-1,0.5-2.1,1.5c-1.2-0.6-2.9-2.1-3.7-3
			c-0.9-1-1.9-2.6-2.3-3.8c1.2-1.1,1.8-1.6,1.8-2.1c0-0.3-0.6-3.8-1.2-4.2L4.3,2.5C3.9,2.2,3.3,1.8,2.7,2C2.5,2,2.4,2,2.2,2.1
			c-0.4,0.3-1.5,1-2,2c-0.3,0.6-0.4,6.2,3.8,11c4.2,4.7,9.3,4.9,10.1,4.7l0,0l0.1,0c1-0.4,1.9-1.4,2.3-1.8c0.6-0.8,0.2-1.7-0.1-2.1
			L16.2,15.8z"/>
		<path fill="#EAC242" d="M10.9,9.1c0.3,0.3,0.4,0.7,0.3,1.1l1.3,0c0.1-0.7-0.2-1.4-0.7-2c-0.5-0.5-1.3-0.8-2-0.7l0,1.3
			C10.2,8.7,10.6,8.8,10.9,9.1z"/>
		<path fill="#EAC242" d="M15,10.2l1.2,0c0-1.6-0.5-3.3-1.8-4.6c-1.3-1.3-2.9-1.9-4.6-1.8l0,1.2c1.3-0.1,2.7,0.4,3.7,1.4
			C14.5,7.5,15,8.8,15,10.2z"/>
		<path fill="#EAC242" d="M17,3c-2-2-4.6-2.9-7.2-2.9l0,1.2c2.3,0,4.6,0.8,6.3,2.5c1.7,1.7,2.6,4,2.5,6.3l1.2,0C20,7.5,19,4.9,17,3z
			"/>
	</g>
</g>
<g id="Layer_2" display="none">
	<path display="inline" fill="#EAC242" d="M9.8,20c-1.5,0-2.8-0.2-4-0.6c-1.1-0.4-2.1-1-2.9-1.8c-0.8-0.8-1.4-1.7-1.8-2.9
		c-0.4-1.1-0.6-2.4-0.6-3.9c0-1,0.1-2,0.3-2.9c0.2-0.9,0.5-1.8,1-2.6c0.4-0.8,0.9-1.5,1.5-2.2c0.6-0.6,1.3-1.2,2-1.7
		C6,1,6.9,0.7,7.8,0.4c0.9-0.2,1.9-0.4,3-0.4c1.3,0,2.5,0.2,3.5,0.6c1.1,0.4,2,1,2.8,1.7c0.8,0.8,1.4,1.7,1.8,2.8
		c0.4,1.1,0.7,2.3,0.7,3.7c0,0.8-0.1,1.5-0.3,2.3c-0.2,0.7-0.5,1.4-0.8,2c-0.4,0.6-0.8,1-1.3,1.4C16.6,14.9,16,15,15.3,15
		c-0.3,0-0.5,0-0.8-0.1c-0.2-0.1-0.5-0.2-0.7-0.3c-0.2-0.1-0.4-0.3-0.5-0.4C13.1,14,13,13.9,13,13.7l-0.1-0.3h-0.5L12,13.6
		c-0.1,0.2-0.3,0.4-0.5,0.6c-0.2,0.2-0.4,0.3-0.6,0.5c-0.2,0.1-0.5,0.2-0.8,0.3C9.8,15,9.5,15,9.2,15c-0.6,0-1.2-0.1-1.7-0.3
		c-0.5-0.2-0.9-0.5-1.2-0.9c-0.3-0.4-0.6-0.9-0.8-1.5c-0.2-0.6-0.3-1.2-0.3-1.9c0-0.8,0.1-1.6,0.4-2.3c0.2-0.7,0.6-1.3,1-1.7
		c0.4-0.5,1-0.9,1.6-1.1C8.9,5,9.7,4.9,10.5,4.9c0.4,0,0.7,0,1.1,0.1C12,5,12.4,5,12.8,5.1c0.4,0.1,0.7,0.1,1,0.2
		c0.2,0,0.4,0.1,0.5,0.1l-0.3,5c0,0.2,0,0.4,0,0.6v0.3c0,0.4,0,0.7,0.1,1c0.1,0.3,0.2,0.5,0.3,0.7c0.1,0.2,0.3,0.3,0.5,0.4
		c0.2,0.1,0.3,0.1,0.5,0.1c0.4,0,0.8-0.2,1.1-0.5c0.3-0.3,0.5-0.6,0.6-1.1c0.2-0.4,0.3-0.9,0.4-1.4c0.1-0.5,0.1-1.1,0.1-1.7
		c0-1.1-0.2-2.1-0.5-3c-0.3-0.9-0.8-1.7-1.4-2.3c-0.6-0.6-1.3-1.1-2.2-1.4c-0.8-0.3-1.7-0.5-2.7-0.5c-1.3,0-2.6,0.2-3.6,0.7
		c-1,0.5-1.9,1.1-2.6,1.9C3.9,5,3.3,6,3,7.1c-0.4,1.1-0.5,2.3-0.5,3.6c0,1.2,0.2,2.3,0.5,3.2c0.3,1,0.8,1.8,1.4,2.4
		c0.6,0.7,1.4,1.2,2.3,1.5c0.9,0.3,1.9,0.5,3.1,0.5c0.5,0,1,0,1.5-0.1c0.5-0.1,1-0.1,1.5-0.2c0.5-0.1,1-0.2,1.5-0.4
		c0.3-0.1,0.6-0.2,0.8-0.3v1.6c-0.7,0.3-1.5,0.5-2.3,0.7C11.8,19.9,10.8,20,9.8,20z M10.5,6.4C9.9,6.4,9.4,6.5,9,6.7
		C8.6,7,8.3,7.3,8,7.7C7.8,8.1,7.6,8.5,7.5,9c-0.1,0.5-0.2,1-0.2,1.4c0,1,0.2,1.8,0.6,2.3c0.4,0.5,0.9,0.8,1.6,0.8
		c0.4,0,0.8-0.1,1.1-0.3c0.3-0.2,0.6-0.5,0.8-0.9c0.2-0.3,0.3-0.7,0.4-1.2C12,10.8,12,10.3,12,9.7l0.2-3.1l-0.3-0.1
		c-0.2,0-0.4-0.1-0.7-0.1C11,6.4,10.7,6.4,10.5,6.4z"/>
</g>
<g id="Layer_3">
	<path fill="#EAC242" d="M18.1,5h-10V3.8H10c1,0,1.9-0.8,1.9-1.9c0-1-0.8-1.9-1.9-1.9H6.9c-0.7,0-1.2,0.6-1.2,1.2V5H1.9
		C1.2,5,0.7,5.6,0.7,6.3v7.5c0,0.7,0.6,1.2,1.2,1.2h6.2v5h5v-5h5c0.7,0,1.2-0.6,1.2-1.2V6.3C19.3,5.6,18.8,5,18.1,5z M10.6,18.7H9.4
		V15h1.2V18.7z M18.1,13.7H1.9V6.3h3.7V10c0,0.7,0.6,1.2,1.2,1.2c0.7,0,1.2-0.6,1.2-1.2V6.3h10V13.7z"/>
</g>
</svg>
