<?xml version="1.0" encoding="utf-8"?>
<!-- Generator: Adobe Illustrator 18.1.1, SVG Export Plug-In . SVG Version: 6.00 Build 0)  -->
<svg version="1.1" id="Layer_1" xmlns="http://www.w3.org/2000/svg" xmlns:xlink="http://www.w3.org/1999/xlink" x="0px" y="0px"
	 viewBox="0 0 124 116" enable-background="new 0 0 124 116" xml:space="preserve">
<g>
	<path fill="#FFFFFF" d="M7.2,48v3.2h0.1c0.3-0.5,0.6-1,1-1.4c0.4-0.5,0.9-0.9,1.5-1.2c0.6-0.4,1.2-0.6,2-0.9
		c0.7-0.2,1.5-0.3,2.4-0.3c1.7,0,3.1,0.3,4.3,1c1.2,0.7,2.1,1.7,2.7,2.9c0.8-1.2,1.8-2.2,3-2.9c1.2-0.7,2.7-1.1,4.4-1.1
		c1.6,0,2.9,0.3,4,0.9c1.1,0.6,1.9,1.3,2.6,2.2c0.7,0.9,1.1,1.9,1.4,3.1c0,0.1,0,0.2,0.1,0.3V34.6H0V48H7.2z"/>
	<path fill="#FFFFFF" d="M29.4,71.2V58.6c0-0.7,0-1.3-0.1-1.9c-0.1-0.6-0.3-1.1-0.5-1.6c-0.2-0.4-0.6-0.8-1-1
		c-0.4-0.3-1-0.4-1.7-0.4c-0.7,0-1.2,0.1-1.7,0.4c-0.5,0.3-0.9,0.7-1.2,1.1c-0.3,0.5-0.6,1-0.7,1.6c-0.2,0.6-0.2,1.2-0.2,1.9v12.5
		h-7.6V58c0-1.3-0.3-2.4-0.8-3.2c-0.5-0.8-1.4-1.2-2.5-1.2c-1.2,0-2.1,0.5-2.8,1.4c-0.7,1-1,2.1-1,3.5v12.6H0v10.5h36.6V71.2H29.4z"
		/>
</g>
<g>
	<path fill="#FFFFFF" d="M110,55.5c-0.5-0.5-1-1-1.7-1.3c-0.7-0.3-1.5-0.5-2.4-0.5c-0.9,0-1.6,0.2-2.3,0.5c-0.7,0.3-1.3,0.8-1.7,1.4
		c-0.5,0.6-0.9,1.2-1.1,1.9c-0.3,0.7-0.4,1.4-0.4,2.2c0,0.7,0.1,1.5,0.4,2.2c0.3,0.7,0.6,1.4,1.1,1.9c0.5,0.6,1.1,1,1.7,1.3
		c0.7,0.3,1.5,0.5,2.3,0.5c0.9,0,1.7-0.2,2.4-0.5c0.7-0.3,1.2-0.8,1.7-1.3c0.4-0.6,0.8-1.2,1-1.9c0.2-0.7,0.3-1.5,0.3-2.2
		c0-0.7-0.1-1.5-0.3-2.2C110.8,56.6,110.5,56,110,55.5z"/>
	<path fill="#FFFFFF" d="M87.4,0v115.8H124V0H87.4z M118.1,64.2c-0.5,1.5-1.2,2.8-2.2,3.9c-0.9,1.1-2.1,2-3.5,2.7
		c-1.4,0.7-2.9,1-4.7,1c-1.4,0-2.8-0.3-4.1-0.9c-1.3-0.6-2.3-1.4-3-2.4h-0.1v13.7H93V48h7.3v2.8h0.1c0.7-0.9,1.7-1.7,3-2.4
		c1.3-0.7,2.7-1,4.4-1c1.7,0,3.2,0.3,4.6,1c1.4,0.7,2.5,1.5,3.5,2.7c0.9,1.1,1.7,2.4,2.2,3.9c0.5,1.5,0.8,3,0.8,4.6
		C118.8,61.2,118.6,62.7,118.1,64.2z"/>
</g>
<g>
	<path fill="#FFFFFF" d="M43.7,17.2v48.4h36.6V17.2H43.7z M72.4,53.1h-7v-2.5h-0.1c-0.6,1-1.5,1.7-2.7,2.2c-1.2,0.5-2.5,0.8-3.9,0.8
		c-0.9,0-1.9-0.1-2.9-0.4c-1-0.2-1.9-0.7-2.7-1.2c-0.8-0.6-1.5-1.3-2-2.2c-0.5-0.9-0.8-2.1-0.8-3.4c0-1.7,0.5-3,1.4-4
		c0.9-1,2.1-1.8,3.5-2.4c1.4-0.6,3-0.9,4.8-1.1c1.8-0.2,3.5-0.3,5.2-0.3v-0.4c0-1.1-0.4-2-1.2-2.5c-0.8-0.5-1.8-0.8-3-0.8
		c-1.1,0-2.1,0.2-3.1,0.7c-1,0.5-1.9,1-2.6,1.7l-3.9-4.1c1.4-1.3,3-2.3,4.8-2.9c1.8-0.7,3.7-1,5.6-1c2,0,3.6,0.2,5,0.7
		c1.3,0.5,2.4,1.2,3.3,2.2c0.8,1,1.5,2.3,1.8,3.8c0.4,1.5,0.6,3.4,0.6,5.5V53.1z"/>
	<path fill="#FFFFFF" d="M61.9,43.1c-0.9,0.1-1.6,0.2-2.3,0.4c-0.7,0.2-1.2,0.5-1.7,1c-0.4,0.4-0.7,1-0.7,1.7c0,0.4,0.1,0.8,0.3,1.1
		c0.2,0.3,0.5,0.6,0.8,0.7c0.3,0.2,0.7,0.3,1.1,0.4c0.4,0.1,0.8,0.1,1.2,0.1c1.6,0,2.7-0.4,3.6-1.3c0.8-0.9,1.2-2,1.2-3.5V43h-1
		C63.6,43,62.7,43,61.9,43.1z"/>
</g>
<g>
	<path fill="#FFFFFF" d="M0.3,86.6h2l1.9,5.1h0l1.9-5.1h2v7.2H6.8V88h0l-2.2,5.8H3.7L1.6,88h0v5.8H0.3V86.6z"/>
	<path fill="#FFFFFF" d="M12.6,86.6h1.1l3.1,7.2h-1.5l-0.7-1.7h-3.1l-0.7,1.7H9.4L12.6,86.6z M14.2,91.1l-1.1-2.9L12,91.1H14.2z"/>
	<path fill="#FFFFFF" d="M18.1,86.6h1.7l3.4,5.4h0v-5.4h1.3v7.2h-1.6l-3.4-5.6h0v5.6h-1.3V86.6z"/>
	<path fill="#FFFFFF" d="M28.9,86.6h1.1l3.1,7.2h-1.5L31,92.2h-3.1l-0.7,1.7h-1.4L28.9,86.6z M30.6,91.1l-1.1-2.9l-1.1,2.9H30.6z"/>
	<path fill="#FFFFFF" d="M40.6,93.5c-0.4,0.2-0.8,0.3-1.2,0.4C39,94,38.5,94,37.9,94c-0.6,0-1.1-0.1-1.6-0.3
		c-0.5-0.2-0.9-0.4-1.2-0.8c-0.3-0.3-0.6-0.7-0.8-1.2c-0.2-0.5-0.3-1-0.3-1.5c0-0.6,0.1-1.1,0.3-1.6c0.2-0.5,0.5-0.9,0.8-1.2
		c0.3-0.3,0.8-0.6,1.2-0.8c0.5-0.2,1-0.3,1.6-0.3c0.6,0,1.1,0.1,1.6,0.2c0.5,0.2,0.9,0.4,1.2,0.7l-0.9,1c-0.2-0.2-0.4-0.4-0.8-0.5
		c-0.3-0.1-0.7-0.2-1.1-0.2c-0.4,0-0.7,0.1-1,0.2c-0.3,0.1-0.6,0.3-0.8,0.6c-0.2,0.2-0.4,0.5-0.5,0.8c-0.1,0.3-0.2,0.7-0.2,1
		c0,0.4,0.1,0.7,0.2,1.1c0.1,0.3,0.3,0.6,0.5,0.8c0.2,0.2,0.5,0.4,0.8,0.6c0.3,0.1,0.7,0.2,1.1,0.2c0.6,0,1-0.1,1.4-0.3v-1.8h-1.5
		v-1.1h2.8V93.5z"/>
	<path fill="#FFFFFF" d="M42.8,86.6h4.8v1.1h-3.5v1.8h3.3v1.1h-3.3v2h3.7v1.1h-5V86.6z"/>
	<path fill="#FFFFFF" d="M49.6,86.6h2l1.9,5.1h0l1.9-5.1h2v7.2h-1.3V88h0l-2.2,5.8H53L50.9,88h0v5.8h-1.2V86.6z"/>
	<path fill="#FFFFFF" d="M59.6,86.6h4.8v1.1h-3.5v1.8h3.3v1.1h-3.3v2h3.7v1.1h-5V86.6z"/>
	<path fill="#FFFFFF" d="M66.5,86.6h1.7l3.4,5.4h0v-5.4h1.3v7.2h-1.6l-3.4-5.6h0v5.6h-1.3V86.6z"/>
	<path fill="#FFFFFF" d="M76.5,87.7h-2.2v-1.1H80v1.1h-2.2v6.1h-1.3V87.7z"/>
	<path fill="#FFFFFF" d="M5.3,103.1l1.7,1.7H5.4L4.6,104c-0.2,0.3-0.5,0.5-0.9,0.7c-0.3,0.2-0.8,0.3-1.3,0.3c-0.3,0-0.6,0-0.9-0.1
		c-0.3-0.1-0.5-0.2-0.8-0.4c-0.2-0.2-0.4-0.4-0.5-0.7c-0.1-0.3-0.2-0.6-0.2-0.9c0-0.3,0-0.5,0.1-0.7c0.1-0.2,0.2-0.4,0.4-0.6
		c0.1-0.2,0.3-0.3,0.5-0.4c0.2-0.1,0.4-0.2,0.6-0.3c-0.2-0.2-0.4-0.5-0.6-0.8c-0.1-0.3-0.2-0.5-0.2-0.9c0-0.3,0.1-0.6,0.2-0.8
		c0.1-0.2,0.3-0.4,0.5-0.6c0.2-0.1,0.4-0.3,0.7-0.3c0.2-0.1,0.5-0.1,0.7-0.1c0.3,0,0.5,0,0.7,0.1c0.2,0.1,0.5,0.2,0.6,0.3
		c0.2,0.1,0.3,0.3,0.4,0.6c0.1,0.2,0.2,0.5,0.2,0.8c0,0.2,0,0.4-0.1,0.6c-0.1,0.2-0.2,0.4-0.3,0.5c-0.1,0.2-0.3,0.3-0.5,0.4
		c-0.2,0.1-0.4,0.2-0.6,0.3l1.2,1.2l0.8-1.3h1.4L5.3,103.1z M2.3,101.6c-0.1,0-0.3,0.1-0.4,0.2c-0.1,0.1-0.2,0.1-0.3,0.2
		c-0.1,0.1-0.2,0.2-0.2,0.3c-0.1,0.1-0.1,0.3-0.1,0.5c0,0.2,0,0.3,0.1,0.5c0.1,0.1,0.2,0.3,0.3,0.4c0.1,0.1,0.2,0.2,0.4,0.2
		s0.3,0.1,0.4,0.1c0.3,0,0.6-0.1,0.8-0.2c0.2-0.1,0.4-0.3,0.6-0.6L2.3,101.6z M2.9,98.4c-0.2,0-0.4,0.1-0.6,0.2
		C2.1,98.8,2,99,2,99.2c0,0.2,0.1,0.4,0.2,0.6c0.1,0.2,0.3,0.4,0.5,0.6c0.1-0.1,0.3-0.1,0.4-0.2c0.1-0.1,0.2-0.2,0.3-0.3
		c0.1-0.1,0.2-0.2,0.2-0.3c0.1-0.1,0.1-0.2,0.1-0.4c0-0.2-0.1-0.4-0.2-0.6C3.3,98.5,3.1,98.4,2.9,98.4z"/>
	<path fill="#FFFFFF" d="M12.8,97.6h1.1l3.1,7.2h-1.5l-0.7-1.7h-3.1l-0.7,1.7H9.6L12.8,97.6z M14.4,102.1l-1.1-2.9l-1.1,2.9H14.4z"
		/>
	<path fill="#FFFFFF" d="M22.9,99.3c-0.2-0.3-0.4-0.4-0.7-0.6c-0.3-0.1-0.6-0.2-0.9-0.2c-0.4,0-0.7,0.1-1,0.2s-0.6,0.3-0.8,0.6
		c-0.2,0.2-0.4,0.5-0.5,0.8c-0.1,0.3-0.2,0.7-0.2,1c0,0.4,0.1,0.8,0.2,1.1c0.1,0.3,0.3,0.6,0.5,0.8c0.2,0.2,0.5,0.4,0.8,0.5
		c0.3,0.1,0.6,0.2,1,0.2c0.4,0,0.7-0.1,1-0.2c0.3-0.2,0.5-0.4,0.7-0.6l1,0.7c-0.3,0.4-0.7,0.7-1.2,0.9c-0.5,0.2-1,0.3-1.6,0.3
		c-0.6,0-1.1-0.1-1.6-0.3c-0.5-0.2-0.9-0.4-1.2-0.8c-0.3-0.3-0.6-0.7-0.8-1.2c-0.2-0.5-0.3-1-0.3-1.5c0-0.6,0.1-1.1,0.3-1.6
		c0.2-0.5,0.5-0.9,0.8-1.2c0.4-0.3,0.8-0.6,1.2-0.8c0.5-0.2,1-0.3,1.6-0.3c0.2,0,0.5,0,0.7,0.1c0.3,0,0.5,0.1,0.7,0.2
		c0.2,0.1,0.4,0.2,0.7,0.3c0.2,0.1,0.4,0.3,0.5,0.5L22.9,99.3z"/>
	<path fill="#FFFFFF" d="M30,99.3c-0.2-0.3-0.4-0.4-0.7-0.6c-0.3-0.1-0.6-0.2-0.9-0.2c-0.4,0-0.7,0.1-1,0.2
		c-0.3,0.1-0.6,0.3-0.8,0.6c-0.2,0.2-0.4,0.5-0.5,0.8c-0.1,0.3-0.2,0.7-0.2,1c0,0.4,0.1,0.8,0.2,1.1c0.1,0.3,0.3,0.6,0.5,0.8
		c0.2,0.2,0.5,0.4,0.8,0.5s0.6,0.2,1,0.2c0.4,0,0.7-0.1,1-0.2c0.3-0.2,0.5-0.4,0.7-0.6l1,0.7c-0.3,0.4-0.7,0.7-1.2,0.9
		c-0.5,0.2-1,0.3-1.6,0.3c-0.6,0-1.1-0.1-1.6-0.3c-0.5-0.2-0.9-0.4-1.2-0.8c-0.3-0.3-0.6-0.7-0.8-1.2c-0.2-0.5-0.3-1-0.3-1.5
		c0-0.6,0.1-1.1,0.3-1.6c0.2-0.5,0.5-0.9,0.8-1.2c0.4-0.3,0.8-0.6,1.2-0.8c0.5-0.2,1-0.3,1.6-0.3c0.2,0,0.5,0,0.7,0.1
		c0.3,0,0.5,0.1,0.7,0.2c0.2,0.1,0.4,0.2,0.7,0.3c0.2,0.1,0.4,0.3,0.5,0.5L30,99.3z"/>
	<path fill="#FFFFFF" d="M31.6,101.2c0-0.6,0.1-1.1,0.3-1.6c0.2-0.5,0.5-0.9,0.8-1.2c0.3-0.3,0.8-0.6,1.2-0.8c0.5-0.2,1-0.3,1.5-0.3
		c0.6,0,1.1,0.1,1.6,0.3c0.5,0.2,0.9,0.4,1.2,0.8c0.3,0.3,0.6,0.7,0.8,1.2c0.2,0.5,0.3,1,0.3,1.6c0,0.6-0.1,1.1-0.3,1.5
		c-0.2,0.5-0.5,0.9-0.8,1.2c-0.3,0.3-0.8,0.6-1.2,0.8c-0.5,0.2-1,0.3-1.6,0.3c-0.6,0-1.1-0.1-1.5-0.3c-0.5-0.2-0.9-0.4-1.2-0.8
		c-0.3-0.3-0.6-0.7-0.8-1.2C31.7,102.3,31.6,101.8,31.6,101.2z M33,101.2c0,0.4,0.1,0.7,0.2,1.1c0.1,0.3,0.3,0.6,0.5,0.8
		c0.2,0.2,0.5,0.4,0.8,0.6c0.3,0.1,0.6,0.2,1,0.2c0.4,0,0.7-0.1,1-0.2c0.3-0.1,0.6-0.3,0.8-0.6c0.2-0.2,0.4-0.5,0.5-0.8
		c0.1-0.3,0.2-0.7,0.2-1.1c0-0.4-0.1-0.7-0.2-1c-0.1-0.3-0.3-0.6-0.5-0.8c-0.2-0.2-0.5-0.4-0.8-0.6c-0.3-0.1-0.6-0.2-1-0.2
		c-0.4,0-0.7,0.1-1,0.2c-0.3,0.1-0.6,0.3-0.8,0.6c-0.2,0.2-0.4,0.5-0.5,0.8C33,100.5,33,100.8,33,101.2z"/>
	<path fill="#FFFFFF" d="M46.5,102.2c0,0.4-0.1,0.8-0.2,1.2c-0.2,0.3-0.4,0.6-0.6,0.9s-0.6,0.4-0.9,0.6c-0.4,0.1-0.7,0.2-1.2,0.2
		s-0.8-0.1-1.2-0.2c-0.4-0.1-0.7-0.3-0.9-0.6c-0.3-0.2-0.5-0.5-0.6-0.9c-0.1-0.4-0.2-0.7-0.2-1.2v-4.6h1.3v4.5c0,0.2,0,0.4,0.1,0.6
		c0.1,0.2,0.1,0.4,0.3,0.6c0.1,0.2,0.3,0.3,0.5,0.4c0.2,0.1,0.5,0.2,0.8,0.2s0.6-0.1,0.8-0.2c0.2-0.1,0.4-0.2,0.5-0.4
		c0.1-0.2,0.2-0.3,0.3-0.6c0.1-0.2,0.1-0.4,0.1-0.6v-4.5h1.3V102.2z"/>
	<path fill="#FFFFFF" d="M48.1,97.6h1.7l3.4,5.4h0v-5.4h1.3v7.2h-1.6l-3.4-5.6h0v5.6h-1.3V97.6z"/>
	<path fill="#FFFFFF" d="M57.7,98.7h-2.2v-1.1h5.7v1.1H59v6.1h-1.3V98.7z"/>
	<path fill="#FFFFFF" d="M62.2,97.6h1.3v7.2h-1.3V97.6z"/>
	<path fill="#FFFFFF" d="M65.2,97.6h1.7l3.4,5.4h0v-5.4h1.3v7.2h-1.6l-3.4-5.6h0v5.6h-1.3V97.6z"/>
	<path fill="#FFFFFF" d="M79.6,104.5c-0.4,0.2-0.8,0.3-1.2,0.4s-0.9,0.1-1.5,0.1c-0.6,0-1.1-0.1-1.6-0.3c-0.5-0.2-0.9-0.4-1.2-0.8
		c-0.3-0.3-0.6-0.7-0.8-1.2c-0.2-0.5-0.3-1-0.3-1.5c0-0.6,0.1-1.1,0.3-1.6c0.2-0.5,0.5-0.9,0.8-1.2c0.3-0.3,0.8-0.6,1.2-0.8
		c0.5-0.2,1-0.3,1.6-0.3c0.6,0,1.1,0.1,1.6,0.2c0.5,0.2,0.9,0.4,1.2,0.7l-0.9,1c-0.2-0.2-0.4-0.4-0.8-0.5c-0.3-0.1-0.7-0.2-1.1-0.2
		c-0.4,0-0.7,0.1-1,0.2s-0.6,0.3-0.8,0.6c-0.2,0.2-0.4,0.5-0.5,0.8s-0.2,0.7-0.2,1c0,0.4,0.1,0.7,0.2,1.1s0.3,0.6,0.5,0.8
		c0.2,0.2,0.5,0.4,0.8,0.6c0.3,0.1,0.7,0.2,1.1,0.2c0.6,0,1-0.1,1.4-0.3v-1.8h-1.5v-1.1h2.8V104.5z"/>
	<path fill="#FFFFFF" d="M0.3,108.6h2.4c0.4,0,0.8,0,1.1,0.1c0.3,0.1,0.6,0.2,0.9,0.4c0.2,0.2,0.4,0.4,0.6,0.7
		c0.1,0.3,0.2,0.6,0.2,1c0,0.4-0.1,0.7-0.2,1c-0.1,0.3-0.4,0.5-0.6,0.7c-0.3,0.2-0.6,0.3-0.9,0.4c-0.3,0.1-0.7,0.1-1.1,0.1h-1v3H0.3
		V108.6z M2.5,111.7c0.2,0,0.4,0,0.6,0c0.2,0,0.4-0.1,0.5-0.2c0.1-0.1,0.3-0.2,0.4-0.3c0.1-0.1,0.1-0.3,0.1-0.5c0-0.2,0-0.4-0.1-0.5
		c-0.1-0.1-0.2-0.2-0.4-0.3c-0.1-0.1-0.3-0.1-0.5-0.1c-0.2,0-0.4,0-0.6,0H1.6v2.1H2.5z"/>
	<path fill="#FFFFFF" d="M6.4,108.6h2.5c0.3,0,0.7,0,1,0.1c0.3,0.1,0.6,0.2,0.9,0.4c0.2,0.2,0.4,0.4,0.6,0.6c0.1,0.3,0.2,0.6,0.2,1
		c0,0.5-0.1,1-0.4,1.3c-0.3,0.3-0.7,0.6-1.2,0.7l1.9,3.2h-1.6l-1.7-3.1H7.6v3.1H6.4V108.6z M8.7,111.7c0.2,0,0.4,0,0.6,0
		c0.2,0,0.3-0.1,0.5-0.2c0.1-0.1,0.3-0.2,0.4-0.3s0.1-0.3,0.1-0.5c0-0.2,0-0.4-0.1-0.5c-0.1-0.1-0.2-0.2-0.3-0.3
		c-0.1-0.1-0.3-0.1-0.5-0.2c-0.2,0-0.3,0-0.5,0H7.6v2H8.7z"/>
	<path fill="#FFFFFF" d="M12.3,112.2c0-0.6,0.1-1.1,0.3-1.6c0.2-0.5,0.5-0.9,0.8-1.2c0.3-0.3,0.8-0.6,1.2-0.8c0.5-0.2,1-0.3,1.5-0.3
		c0.6,0,1.1,0.1,1.6,0.3c0.5,0.2,0.9,0.4,1.2,0.8c0.3,0.3,0.6,0.7,0.8,1.2c0.2,0.5,0.3,1,0.3,1.6c0,0.6-0.1,1.1-0.3,1.5
		c-0.2,0.5-0.5,0.9-0.8,1.2c-0.3,0.3-0.8,0.6-1.2,0.8c-0.5,0.2-1,0.3-1.6,0.3c-0.6,0-1.1-0.1-1.5-0.3c-0.5-0.2-0.9-0.4-1.2-0.8
		c-0.3-0.3-0.6-0.7-0.8-1.2C12.4,113.3,12.3,112.7,12.3,112.2z M13.7,112.2c0,0.4,0.1,0.7,0.2,1.1c0.1,0.3,0.3,0.6,0.5,0.8
		c0.2,0.2,0.5,0.4,0.8,0.6c0.3,0.1,0.6,0.2,1,0.2c0.4,0,0.7-0.1,1-0.2c0.3-0.1,0.6-0.3,0.8-0.6c0.2-0.2,0.4-0.5,0.5-0.8
		c0.1-0.3,0.2-0.7,0.2-1.1c0-0.4-0.1-0.7-0.2-1c-0.1-0.3-0.3-0.6-0.5-0.8c-0.2-0.2-0.5-0.4-0.8-0.6c-0.3-0.1-0.6-0.2-1-0.2
		c-0.4,0-0.7,0.1-1,0.2c-0.3,0.1-0.6,0.3-0.8,0.6c-0.2,0.2-0.4,0.5-0.5,0.8C13.7,111.5,13.7,111.8,13.7,112.2z"/>
	<path fill="#FFFFFF" d="M21.1,108.6h4.7v1.1h-3.4v2h3.2v1.1h-3.2v3h-1.3V108.6z"/>
	<path fill="#FFFFFF" d="M26.8,108.6h4.8v1.1h-3.5v1.8h3.3v1.1h-3.3v2h3.7v1.1h-5V108.6z"/>
	<path fill="#FFFFFF" d="M36.5,110.1c-0.1-0.2-0.3-0.3-0.6-0.4c-0.2-0.1-0.5-0.2-0.7-0.2c-0.1,0-0.3,0-0.4,0.1
		c-0.1,0-0.3,0.1-0.4,0.2c-0.1,0.1-0.2,0.2-0.3,0.3c-0.1,0.1-0.1,0.3-0.1,0.5c0,0.2,0,0.3,0.1,0.4c0.1,0.1,0.2,0.2,0.3,0.3
		c0.1,0.1,0.3,0.2,0.4,0.2c0.2,0.1,0.4,0.1,0.6,0.2c0.2,0.1,0.5,0.2,0.7,0.3c0.2,0.1,0.5,0.2,0.7,0.4c0.2,0.2,0.4,0.4,0.5,0.6
		c0.1,0.2,0.2,0.5,0.2,0.9c0,0.4-0.1,0.7-0.2,1c-0.1,0.3-0.3,0.5-0.6,0.7c-0.2,0.2-0.5,0.3-0.8,0.4c-0.3,0.1-0.7,0.1-1,0.1
		c-0.5,0-0.9-0.1-1.4-0.3c-0.4-0.2-0.8-0.4-1.1-0.8l0.9-0.9c0.2,0.2,0.4,0.4,0.7,0.6c0.3,0.1,0.6,0.2,0.9,0.2c0.1,0,0.3,0,0.5-0.1
		c0.2,0,0.3-0.1,0.4-0.2c0.1-0.1,0.2-0.2,0.3-0.3c0.1-0.1,0.1-0.3,0.1-0.5c0-0.2,0-0.3-0.1-0.5c-0.1-0.1-0.2-0.2-0.4-0.3
		c-0.1-0.1-0.3-0.2-0.5-0.2c-0.2-0.1-0.4-0.1-0.6-0.2c-0.2-0.1-0.4-0.1-0.7-0.2c-0.2-0.1-0.4-0.2-0.6-0.4c-0.2-0.2-0.3-0.3-0.4-0.6
		c-0.1-0.2-0.2-0.5-0.2-0.9c0-0.4,0.1-0.7,0.2-0.9c0.2-0.3,0.4-0.5,0.6-0.7c0.2-0.2,0.5-0.3,0.8-0.4s0.6-0.1,1-0.1
		c0.4,0,0.7,0.1,1.1,0.2c0.4,0.1,0.7,0.3,1,0.6L36.5,110.1z"/>
	<path fill="#FFFFFF" d="M42.2,110.1c-0.1-0.2-0.3-0.3-0.6-0.4c-0.2-0.1-0.5-0.2-0.7-0.2c-0.1,0-0.3,0-0.4,0.1
		c-0.1,0-0.3,0.1-0.4,0.2c-0.1,0.1-0.2,0.2-0.3,0.3c-0.1,0.1-0.1,0.3-0.1,0.5c0,0.2,0,0.3,0.1,0.4c0.1,0.1,0.2,0.2,0.3,0.3
		c0.1,0.1,0.3,0.2,0.4,0.2c0.2,0.1,0.4,0.1,0.6,0.2c0.2,0.1,0.5,0.2,0.7,0.3c0.2,0.1,0.5,0.2,0.7,0.4c0.2,0.2,0.4,0.4,0.5,0.6
		c0.1,0.2,0.2,0.5,0.2,0.9c0,0.4-0.1,0.7-0.2,1c-0.1,0.3-0.3,0.5-0.6,0.7c-0.2,0.2-0.5,0.3-0.8,0.4c-0.3,0.1-0.7,0.1-1,0.1
		c-0.5,0-0.9-0.1-1.4-0.3c-0.4-0.2-0.8-0.4-1.1-0.8l0.9-0.9c0.2,0.2,0.4,0.4,0.7,0.6c0.3,0.1,0.6,0.2,0.9,0.2c0.1,0,0.3,0,0.5-0.1
		c0.2,0,0.3-0.1,0.4-0.2c0.1-0.1,0.2-0.2,0.3-0.3c0.1-0.1,0.1-0.3,0.1-0.5c0-0.2,0-0.3-0.1-0.5c-0.1-0.1-0.2-0.2-0.4-0.3
		c-0.1-0.1-0.3-0.2-0.5-0.2c-0.2-0.1-0.4-0.1-0.6-0.2c-0.2-0.1-0.4-0.1-0.7-0.2s-0.4-0.2-0.6-0.4c-0.2-0.2-0.3-0.3-0.4-0.6
		c-0.1-0.2-0.2-0.5-0.2-0.9c0-0.4,0.1-0.7,0.2-0.9c0.2-0.3,0.4-0.5,0.6-0.7c0.2-0.2,0.5-0.3,0.8-0.4c0.3-0.1,0.6-0.1,1-0.1
		c0.4,0,0.7,0.1,1.1,0.2c0.4,0.1,0.7,0.3,1,0.6L42.2,110.1z"/>
	<path fill="#FFFFFF" d="M44.2,108.6h1.3v7.2h-1.3V108.6z"/>
	<path fill="#FFFFFF" d="M46.6,112.2c0-0.6,0.1-1.1,0.3-1.6c0.2-0.5,0.5-0.9,0.8-1.2c0.3-0.3,0.8-0.6,1.2-0.8c0.5-0.2,1-0.3,1.5-0.3
		c0.6,0,1.1,0.1,1.6,0.3c0.5,0.2,0.9,0.4,1.2,0.8c0.3,0.3,0.6,0.7,0.8,1.2c0.2,0.5,0.3,1,0.3,1.6c0,0.6-0.1,1.1-0.3,1.5
		c-0.2,0.5-0.5,0.9-0.8,1.2c-0.3,0.3-0.8,0.6-1.2,0.8c-0.5,0.2-1,0.3-1.6,0.3c-0.6,0-1.1-0.1-1.5-0.3c-0.5-0.2-0.9-0.4-1.2-0.8
		c-0.3-0.3-0.6-0.7-0.8-1.2C46.7,113.3,46.6,112.7,46.6,112.2z M48,112.2c0,0.4,0.1,0.7,0.2,1.1c0.1,0.3,0.3,0.6,0.5,0.8
		c0.2,0.2,0.5,0.4,0.8,0.6c0.3,0.1,0.6,0.2,1,0.2s0.7-0.1,1-0.2c0.3-0.1,0.6-0.3,0.8-0.6c0.2-0.2,0.4-0.5,0.5-0.8
		c0.1-0.3,0.2-0.7,0.2-1.1c0-0.4-0.1-0.7-0.2-1c-0.1-0.3-0.3-0.6-0.5-0.8c-0.2-0.2-0.5-0.4-0.8-0.6c-0.3-0.1-0.6-0.2-1-0.2
		c-0.4,0-0.7,0.1-1,0.2c-0.3,0.1-0.6,0.3-0.8,0.6c-0.2,0.2-0.4,0.5-0.5,0.8C48.1,111.5,48,111.8,48,112.2z"/>
	<path fill="#FFFFFF" d="M55.4,108.6h1.7l3.4,5.4h0v-5.4h1.3v7.2h-1.6l-3.4-5.6h0v5.6h-1.3V108.6z"/>
	<path fill="#FFFFFF" d="M65.5,108.6h1.1l3.1,7.2h-1.5l-0.7-1.7h-3.1l-0.7,1.7h-1.4L65.5,108.6z M67.1,113.1l-1.1-2.9l-1.1,2.9H67.1
		z"/>
	<path fill="#FFFFFF" d="M70.3,108.6h1.3v6.1h3.1v1.1h-4.4V108.6z"/>
	<path fill="#FFFFFF" d="M79,110.1c-0.1-0.2-0.3-0.3-0.6-0.4c-0.2-0.1-0.5-0.2-0.7-0.2c-0.2,0-0.3,0-0.4,0.1c-0.1,0-0.3,0.1-0.4,0.2
		c-0.1,0.1-0.2,0.2-0.3,0.3c-0.1,0.1-0.1,0.3-0.1,0.5c0,0.2,0,0.3,0.1,0.4c0.1,0.1,0.2,0.2,0.3,0.3c0.1,0.1,0.3,0.2,0.4,0.2
		s0.4,0.1,0.6,0.2c0.2,0.1,0.5,0.2,0.7,0.3c0.2,0.1,0.5,0.2,0.7,0.4c0.2,0.2,0.4,0.4,0.5,0.6c0.1,0.2,0.2,0.5,0.2,0.9
		c0,0.4-0.1,0.7-0.2,1c-0.1,0.3-0.3,0.5-0.6,0.7c-0.2,0.2-0.5,0.3-0.8,0.4s-0.7,0.1-1,0.1c-0.5,0-0.9-0.1-1.4-0.3
		c-0.4-0.2-0.8-0.4-1.1-0.8l0.9-0.9c0.2,0.2,0.4,0.4,0.7,0.6c0.3,0.1,0.6,0.2,0.9,0.2c0.1,0,0.3,0,0.5-0.1c0.2,0,0.3-0.1,0.4-0.2
		s0.2-0.2,0.3-0.3c0.1-0.1,0.1-0.3,0.1-0.5c0-0.2,0-0.3-0.1-0.5c-0.1-0.1-0.2-0.2-0.4-0.3c-0.1-0.1-0.3-0.2-0.5-0.2
		c-0.2-0.1-0.4-0.1-0.6-0.2c-0.2-0.1-0.4-0.1-0.7-0.2c-0.2-0.1-0.4-0.2-0.6-0.4c-0.2-0.2-0.3-0.3-0.4-0.6c-0.1-0.2-0.2-0.5-0.2-0.9
		c0-0.4,0.1-0.7,0.2-0.9c0.2-0.3,0.4-0.5,0.6-0.7c0.2-0.2,0.5-0.3,0.8-0.4c0.3-0.1,0.6-0.1,1-0.1c0.4,0,0.7,0.1,1.1,0.2
		c0.4,0.1,0.7,0.3,1,0.6L79,110.1z"/>
</g>
</svg>
