<?xml version="1.0" encoding="utf-8"?>
<!-- Generator: Adobe Illustrator 18.1.1, SVG Export Plug-In . SVG Version: 6.00 Build 0)  -->
<svg version="1.1" xmlns="http://www.w3.org/2000/svg" xmlns:xlink="http://www.w3.org/1999/xlink" x="0px" y="0px"
	 viewBox="0 0 16 16" enable-background="new 0 0 16 16" xml:space="preserve">
<g id="biz_structure" display="none">
	<path display="inline" fill="#684B1B" d="M14,12V8H8.5V4h3V0h-7v4h3v4H2v4H0v4h4v-4H3V9h4.5v3H6v4h4v-4H8.5V9H13v3h-1v4h4v-4H14z
		 M5.5,3V1h5v2H5.5z M3,15H1v-2h2V15z M9,13v2H7v-2H9z M15,15h-2v-2h2V15z"/>
</g>
<g id="bookkeeping">
	<path fill="#684B1B" d="M8,4.5c0-2.5-5.6-3-8-3v11h0.5c0.2,0,0.3,0,0.5,0v1c2,0,6-0.6,6,1h2c0-1.6,4-1,6-1v-1c0.2,0,0.3,0,0.5,0H16
		v-11C13.6,1.5,8,2,8,4.5z M7,11.9C5.5,11.1,2.8,11,1,11V2.5c0.5,0,0.9,0,1.4,0.1l0.2,0l0.1,0c2,0.1,4.1,0.6,4.3,1.7l0,0.2V11.9z
		 M15,11c-1.8,0-4.5,0.1-6,0.9V4.5c0-0.7,1.1-2,6-2V11z"/>
</g>
<g id="tax" display="none">
	<g display="inline">
		<path fill="#684B1B" d="M13.5,0h-11C1.7,0,1,0.7,1,1.5v13C1,15.3,1.7,16,2.5,16h11c0.8,0,1.5-0.7,1.5-1.5v-13
			C15,0.7,14.3,0,13.5,0z M14,14.5c0,0.3-0.2,0.5-0.5,0.5h-11C2.2,15,2,14.8,2,14.5v-13C2,1.2,2.2,1,2.5,1h11C13.8,1,14,1.2,14,1.5
			V14.5z"/>
		<rect x="3" y="2" fill="#684B1B" width="10" height="3"/>
		<rect x="3" y="6" fill="#684B1B" width="2" height="2"/>
		<rect x="3" y="9" fill="#684B1B" width="2" height="2"/>
		<rect x="3" y="12" fill="#684B1B" width="2" height="2"/>
		<rect x="6" y="6" fill="#684B1B" width="2" height="2"/>
		<rect x="6" y="9" fill="#684B1B" width="2" height="2"/>
		<rect x="6" y="12" fill="#684B1B" width="2" height="2"/>
		<rect x="9" y="6" fill="#684B1B" width="4" height="2"/>
		<rect x="9" y="9" fill="#684B1B" width="2" height="2"/>
		<rect x="9" y="12" fill="#684B1B" width="2" height="2"/>
		<rect x="12" y="9" fill="#684B1B" width="1" height="1"/>
		<rect x="12" y="11" fill="#684B1B" width="1" height="1"/>
		<rect x="12" y="13" fill="#684B1B" width="1" height="1"/>
	</g>
</g>
<g id="payroll_1_" display="none">
	<g display="inline">
		<path fill="#684B1B" d="M10.5,0C7.6,0,5.3,2.2,5,5c-2.8,0.2-5,2.6-5,5.5c0,3,2.5,5.5,5.5,5.5c2.9,0,5.2-2.2,5.5-5
			c2.8-0.2,5-2.6,5-5.5C16,2.5,13.5,0,10.5,0z M5.4,10.9h0.4c0.2,0,0.4,0.1,0.4,0.4v0.8c0,0.3-0.2,0.4-0.4,0.4H5.4V10.9z M5.5,15
			C3,15,1,13,1,10.5C1,8.2,2.8,6.3,5,6c0,0.3,0.1,0.7,0.2,1C5.2,7,5.1,7,5.1,7C4.8,7,4.7,7.2,4.7,7.4v0.4H4.3
			c-0.5,0-1.2,0.3-1.2,1.2v0.8c0,0.9,0.7,1.2,1.2,1.2h0.4v1.6H3.5c-0.2,0-0.4,0.2-0.4,0.4c0,0.2,0.2,0.4,0.4,0.4h1.2v0.4
			c0,0.2,0.2,0.4,0.4,0.4c0.2,0,0.4-0.2,0.4-0.4v-0.4h0.4c0.5,0,1.2-0.3,1.2-1.2v-0.8c0-0.9-0.7-1.2-1.2-1.2H5.4V8.6h0.5
			c0.9,1.3,2.3,2.2,4,2.4C9.7,13.2,7.8,15,5.5,15z M4.7,8.6v1.6H4.3c-0.2,0-0.4-0.1-0.4-0.4V8.9c0-0.3,0.2-0.4,0.4-0.4H4.7z
			 M10.5,10C8,10,6,8,6,5.5S8,1,10.5,1C13,1,15,3,15,5.5S13,10,10.5,10z"/>
		<path fill="#684B1B" d="M12.5,3.6c0.2,0,0.4-0.2,0.4-0.4c0-0.2-0.2-0.4-0.4-0.4h-1.2V2.4c0-0.2-0.2-0.4-0.4-0.4
			c-0.2,0-0.4,0.2-0.4,0.4v0.4h-0.4C9.7,2.8,9,3.1,9,3.9v0.8c0,0.9,0.7,1.2,1.2,1.2h0.4v1.6H9.4C9.2,7.4,9,7.6,9,7.8
			C9,8,9.2,8.2,9.4,8.2h1.2v0.4c0,0.2,0.2,0.4,0.4,0.4c0.2,0,0.4-0.2,0.4-0.4V8.2h0.4c0.5,0,1.2-0.3,1.2-1.2V6.3
			c0-0.9-0.7-1.2-1.2-1.2h-0.4V3.6H12.5z M10.6,5.1h-0.4C10,5.1,9.8,5,9.8,4.7V3.9c0-0.3,0.2-0.4,0.4-0.4h0.4V5.1z M11.7,5.9
			c0.2,0,0.4,0.1,0.4,0.4v0.8c0,0.3-0.2,0.4-0.4,0.4h-0.4V5.9H11.7z"/>
	</g>
</g>
<g id="biz_coach" display="none">
	
		<path display="inline" fill="none" stroke="#684B1B" stroke-width="1.2" stroke-linecap="round" stroke-linejoin="round" stroke-miterlimit="10" d="
		M12.1,8.2c0.5-0.1,1.5-0.5,1.5-1.2c0-0.6-0.5-1-1.1-1L8.2,6.5l-0.6,0c0,0,0.9-0.4,0.2-3.6c-0.7-3.2-2.5-2-2.5-2s0,2.8-0.1,3.1
		C5.1,4.4,3,8.5,3,8.5c0,0.2-1.3,0.4-1.3,0.7c0,1.9,0,3.5,0,5.5c1.4-0.4,2.2,0.7,5.2,0.7c1,0,2.2-0.2,3.2-0.3l2.7-0.3
		c0.5,0,0.8-0.6,0.7-1.2c0-0.5-1-0.8-1.3-1l1,0c0.5-0.1,0.9-0.6,0.9-1.2c-0.1-0.5-1.2-0.9-1.6-1l0.9,0c0.6-0.1,1-0.6,1-1.2
		C14.2,8.4,12.7,8.2,12.1,8.2"/>
</g>
</svg>
