<?xml version="1.0" encoding="utf-8"?>
<!-- Generator: Adobe Illustrator 18.1.1, SVG Export Plug-In . SVG Version: 6.00 Build 0)  -->
<svg version="1.1" id="Layer_1" xmlns="http://www.w3.org/2000/svg" xmlns:xlink="http://www.w3.org/1999/xlink" x="0px" y="0px"
	 viewBox="0 0 30 30" enable-background="new 0 0 30 30" xml:space="preserve">
<g>
	<path fill="#AD3B8F" d="M24.6,0.1H5.4c-1.4,0-2.6,1.2-2.6,2.6v22.8c0,1.4,1.2,2.6,2.6,2.6h19.2c1.4,0,2.6-1.2,2.6-2.6V2.7
		C27.2,1.2,26.1,0.1,24.6,0.1z M25.5,25.4c0,0.5-0.4,0.9-0.9,0.9H5.4c-0.5,0-0.9-0.4-0.9-0.9V2.7c0-0.5,0.4-0.9,0.9-0.9h19.2
		c0.5,0,0.9,0.4,0.9,0.9V25.4z"/>
	<rect x="6.2" y="3.6" fill="#AD3B8F" width="17.5" height="5.2"/>
	<rect x="6.2" y="10.6" fill="#AD3B8F" width="3.5" height="3.5"/>
	<rect x="6.2" y="15.8" fill="#AD3B8F" width="3.5" height="3.5"/>
	<rect x="6.2" y="21.1" fill="#AD3B8F" width="3.5" height="3.5"/>
	<rect x="11.5" y="10.6" fill="#AD3B8F" width="3.5" height="3.5"/>
	<rect x="11.5" y="15.8" fill="#AD3B8F" width="3.5" height="3.5"/>
	<rect x="11.5" y="21.1" fill="#AD3B8F" width="3.5" height="3.5"/>
	<rect x="16.8" y="10.6" fill="#AD3B8F" width="7" height="3.5"/>
	<rect x="16.8" y="15.8" fill="#AD3B8F" width="3.5" height="3.5"/>
	<rect x="16.8" y="21.1" fill="#AD3B8F" width="3.5" height="3.5"/>
	<rect x="22" y="15.8" fill="#AD3B8F" width="1.8" height="1.8"/>
	<rect x="22" y="19.3" fill="#AD3B8F" width="1.8" height="1.8"/>
	<rect x="22" y="22.8" fill="#AD3B8F" width="1.8" height="1.8"/>
</g>
</svg>
